<svg xmlns="http://www.w3.org/2000/svg" viewBox="0 0 512 512" width="512" height="512" preserveAspectRatio="xMidYMid meet" style="width: 100%; height: 100%; transform: translate3d(0px, 0px, 0px); content-visibility: visible;"><defs><clipPath id="__lottie_element_2"><rect width="512" height="512" x="0" y="0"/></clipPath><clipPath id="__lottie_element_4"><path d="M0,0 L512,0 L512,512 L0,512z"/></clipPath><clipPath id="__lottie_element_8"><path d="M0,0 L512,0 L512,512 L0,512z"/></clipPath><clipPath id="__lottie_element_12"><path d="M0,0 L512,0 L512,512 L0,512z"/></clipPath><radialGradient id="__lottie_element_50" spreadMethod="pad" gradientUnits="userSpaceOnUse" cx="0" cy="0" r="100" fx="0" fy="0"><stop offset="15%" stop-color="rgb(255,146,39)"/><stop offset="24%" stop-color="rgb(255,179,39)"/><stop offset="54%" stop-color="rgb(255,213,39)"/></radialGradient><radialGradient id="__lottie_element_54" spreadMethod="pad" gradientUnits="userSpaceOnUse" cx="0" cy="0" r="100" fx="0" fy="0"><stop offset="15%" stop-color="rgb(255,146,39)"/><stop offset="24%" stop-color="rgb(255,179,39)"/><stop offset="54%" stop-color="rgb(255,213,39)"/></radialGradient><clipPath id="__lottie_element_90"><path d="M0,0 L512,0 L512,512 L0,512z"/></clipPath><clipPath id="__lottie_element_103"><path d="M0,0 L512,0 L512,512 L0,512z"/></clipPath><clipPath id="__lottie_element_107"><path d="M0,0 L512,0 L512,512 L0,512z"/></clipPath><clipPath id="__lottie_element_111"><path d="M0,0 L512,0 L512,512 L0,512z"/></clipPath><radialGradient id="__lottie_element_149" spreadMethod="pad" gradientUnits="userSpaceOnUse" cx="0" cy="0" r="100" fx="0" fy="0"><stop offset="15%" stop-color="rgb(255,146,39)"/><stop offset="24%" stop-color="rgb(255,179,39)"/><stop offset="54%" stop-color="rgb(255,213,39)"/></radialGradient><radialGradient id="__lottie_element_153" spreadMethod="pad" gradientUnits="userSpaceOnUse" cx="0" cy="0" r="100" fx="0" fy="0"><stop offset="15%" stop-color="rgb(255,146,39)"/><stop offset="24%" stop-color="rgb(255,179,39)"/><stop offset="54%" stop-color="rgb(255,213,39)"/></radialGradient><clipPath id="__lottie_element_204"><path d="M0,0 L512,0 L512,512 L0,512z"/></clipPath></defs><g clip-path="url(#__lottie_element_2)"><g clip-path="url(#__lottie_element_4)" transform="matrix(1,0,0,1,0,0)" opacity="1" style="display: block;"><g clip-path="url(#__lottie_element_8)" transform="matrix(1,0,0,0.800000011920929,13,112.39999389648438)" opacity="1" style="display: none;"/><g clip-path="url(#__lottie_element_90)" transform="matrix(1,0,0,0.800000011920929,13,112.39999389648438)" opacity="1" style="display: none;"><g transform="matrix(0.6895004510879517,0,0,0.6895004510879517,135.94061279296875,387.0345764160156)" opacity="1" style="display: block;"><g opacity="1" transform="matrix(1,0,0,1,176.4949951171875,64.81999969482422)"><path stroke-linecap="round" stroke-linejoin="round" fill-opacity="0" stroke="rgb(3,180,255)" stroke-opacity="1" stroke-width="3.5792260312112845" d=" M151.4949951171875,0 C151.4949951171875,21.992000579833984 83.66899871826172,39.81999969482422 0.0010000000474974513,39.81999969482422 C-83.66699981689453,39.81999969482422 -151.49400329589844,21.992000579833984 -151.49400329589844,0 C-151.49400329589844,-21.992000579833984 -83.66699981689453,-39.81999969482422 0.0010000000474974513,-39.81999969482422 C83.66899871826172,-39.81999969482422 151.4949951171875,-21.992000579833984 151.4949951171875,0z"/></g></g></g><g clip-path="url(#__lottie_element_12)" transform="matrix(1,0,0,0.800000011920929,13,112.39999389648438)" opacity="1" style="display: block;"><g transform="matrix(1.5022599697113037,0,0,1.5022599697113037,-7.507354736328125,334.35150146484375)" opacity="1" style="display: block;"><g opacity="1" transform="matrix(1,0,0,1,176.4949951171875,64.81999969482422)"><path stroke-linecap="round" stroke-linejoin="round" fill-opacity="0" stroke="rgb(3,180,255)" stroke-opacity="1" stroke-width="0" d=" M151.4949951171875,0 C151.4949951171875,21.992000579833984 83.66899871826172,39.81999969482422 0.0010000000474974513,39.81999969482422 C-83.66699981689453,39.81999969482422 -151.49400329589844,21.992000579833984 -151.49400329589844,0 C-151.49400329589844,-21.992000579833984 -83.66699981689453,-39.81999969482422 0.0010000000474974513,-39.81999969482422 C83.66899871826172,-39.81999969482422 151.4949951171875,-21.992000579833984 151.4949951171875,0z"/></g></g></g><g transform="matrix(1.049178957939148,0.04151579365134239,-0.04151579365134239,1.049178957939148,82.59210205078125,185.37294006347656)" opacity="1" style="display: block;"><path fill="rgb(255,213,39)" fill-opacity="1" d=" M87.25,255.02 C50.72,246.05 37.38,204.69 37.38,173.7 C37.38,143.19 42.43,113.55 75.41,86.2 C105.15,61.53 163.74,32.48 208.14,31.9 C278.33,30.98 321.45,63.24 330.68,74.55 C347.92,95.7 364.79,127.46 366.2,173.4 C367.24,207.08 349.11,245.79 298.59,254.1 C226.17,266.01 150.01,270.44 87.25,255.02z"/><g opacity="1" transform="matrix(1,0,0,1,205.83900451660156,156.75)"><path stroke-linecap="round" stroke-linejoin="miter" fill-opacity="0" stroke-miterlimit="10" stroke="rgb(249,143,22)" stroke-opacity="1" stroke-width="20" d=" M-118.58899688720703,98.27200317382812 C-155.11500549316406,89.30000305175781 -168.45799255371094,47.94300079345703 -168.45799255371094,16.94700050354004 C-168.45799255371094,-13.5649995803833 -163.40899658203125,-43.196998596191406 -130.43099975585938,-70.55000305175781 C-100.68699645996094,-95.22000122070312 -42.097999572753906,-124.2699966430664 2.305000066757202,-124.8499984741211 C72.48799896240234,-125.76699829101562 115.61199951171875,-93.51000213623047 124.83799743652344,-82.19599914550781 C142.08200073242188,-61.04999923706055 158.9550018310547,-29.285999298095703 160.36300659179688,16.645000457763672 C161.39599609375,50.334999084472656 143.27200317382812,89.04399871826172 92.75499725341797,97.35099792480469 C20.326000213623047,109.26100158691406 -55.83100128173828,113.68699645996094 -118.58899688720703,98.27200317382812z"/></g></g><g transform="matrix(1.049178957939148,0.04151579365134239,-0.04151579365134239,1.049178957939148,-195.86996459960938,190.48751831054688)" opacity="1" style="display: block;"><path fill="rgb(255,213,39)" fill-opacity="1" d=" M321.35,147.86 C303.23,124.82 292.17,131.72 287.86,139.23 C271.94,166.94 300.63,228.3 351.7,243.95"/><g opacity="1" transform="matrix(1,0,0,1,205.83900451660156,156.75)"><path stroke-linecap="round" stroke-linejoin="miter" fill-opacity="0" stroke-miterlimit="10" stroke="rgb(249,143,22)" stroke-opacity="1" stroke-width="10" d=" M115.50900268554688,-8.892000198364258 C97.38899993896484,-31.929000854492188 86.33200073242188,-25.025999069213867 82.02100372314453,-17.52199935913086 C66.10099792480469,10.1899995803833 94.78600311279297,71.552001953125 145.86199951171875,87.2040023803711"/></g></g><g transform="matrix(1.049178957939148,0.04151579365134239,-0.04151579365134239,1.049178957939148,82.59210205078125,185.37294006347656)" opacity="1" style="display: block;"><path fill="rgb(255,213,39)" fill-opacity="1" d=" M87.25,255.02 C50.72,246.05 37.38,204.69 37.38,173.7 C37.38,143.19 42.43,113.55 75.41,86.2 C105.15,61.53 163.74,32.48 208.14,31.9 C278.33,30.98 321.45,63.24 330.68,74.55 C347.92,95.7 364.79,127.46 366.2,173.4 C367.24,207.08 349.11,245.79 298.59,254.1 C226.17,266.01 150.01,270.44 87.25,255.02z"/><g opacity="1" transform="matrix(1,0,0,1,205.83900451660156,156.75)"/></g><g transform="matrix(1.0472136735916138,-0.07644317299127579,0.07644317299127579,1.0472136735916138,85.94185638427734,286.3919677734375)" opacity="1" style="display: block;"><g opacity="1" transform="matrix(1,0,0,1,38.819000244140625,73.84600067138672)"><path stroke-linecap="round" stroke-linejoin="round" fill-opacity="0" stroke="rgb(255,255,255)" stroke-opacity="1" stroke-width="10" d=" M-4.084000110626221,21.915000915527344 C-1.9259999990463257,43.39799880981445 5.724999904632568,65.43199920654297 22.617000579833984,76.97000122070312"/></g></g><g transform="matrix(1.049178957939148,0.04151579365134239,-0.04151579365134239,1.049178957939148,404.6495056152344,338.0577697753906)" opacity="1" style="display: block;"><g opacity="1" transform="matrix(1,0,0,1,35.6879997253418,48.13999938964844)"><path stroke-linecap="round" stroke-linejoin="round" fill-opacity="0" stroke="rgb(251,237,32)" stroke-opacity="1" stroke-width="10" d=" M-16.62700080871582,44.558998107910156 C0.492000013589859,31.183000564575195 17.95400047302246,6.0980000495910645 0.36500000953674316,-55.96799850463867"/></g></g><g transform="matrix(0.9999990463256836,0,0,0.9999990463256836,295.2491149902344,256.00048828125)" opacity="1" style="display: block;"><g opacity="1" transform="matrix(1,0,0,1,150.06199645996094,56.077999114990234)"><path fill="rgb(255,213,39)" fill-opacity="1" d=" M0,-11.57800006866455 C6.380791664123535,-11.57800006866455 11.56149959564209,-6.389898300170898 11.56149959564209,0 C11.56149959564209,6.389898300170898 6.380791664123535,11.57800006866455 0,11.57800006866455 C-6.380791664123535,11.57800006866455 -11.56149959564209,6.389898300170898 -11.56149959564209,0 C-11.56149959564209,-6.389898300170898 -6.380791664123535,-11.57800006866455 0,-11.57800006866455z"/></g></g><g transform="matrix(0.9266851544380188,-0.37583574652671814,-0.37583574652671814,-0.9266851544380188,425.9495544433594,465.544189453125)" opacity="1" style="display: block;"><path fill="rgb(255,213,39)" fill-opacity="1" d=" M66.92,189.21 C124.76,143.69 107.17,78.52 87.65,52.32 C79.26,41.06 66.64,36.15 58.16,44.12 C69.84,63.99 85.52,101.33 79.21,127.54"/><g opacity="1" transform="matrix(1,0,0,1,74.38400268554688,100.1780014038086)"><path stroke-linecap="round" stroke-linejoin="miter" fill-opacity="0" stroke-miterlimit="10" stroke="rgb(249,143,22)" stroke-opacity="1" stroke-width="10" d=" M-7.460000038146973,89.0270004272461 C50.37699890136719,43.51100158691406 32.78499984741211,-21.655000686645508 13.26200008392334,-47.85599899291992 C4.872000217437744,-59.117000579833984 -7.744999885559082,-64.02899932861328 -16.22800064086914,-56.058998107910156 C-4.546999931335449,-36.189998626708984 11.13700008392334,1.152999997138977 4.828000068664551,27.358999252319336"/></g></g><g transform="matrix(1.0491777658462524,0.041515737771987915,-0.041515737771987915,1.0491777658462524,390.0216979980469,248.55340576171875)" opacity="1" style="display: block;"><g opacity="1" transform="matrix(1,0,0,1,35.28499984741211,48.323001861572266)"><path stroke-linecap="round" stroke-linejoin="round" fill-opacity="0" stroke="rgb(251,237,32)" stroke-opacity="1" stroke-width="7" d=" M55.52799987792969,65.00199890136719 C52.00299835205078,35.237998962402344 47.0890007019043,15.395000457763672 20.21299934387207,-7.691999912261963"/></g></g><g transform="matrix(1.083172082901001,0.20552805066108704,-0.20552805066108704,1.083172082901001,104.9102554321289,-62.4577751159668)" opacity="1" style="display: block;"><g opacity="1" transform="matrix(1,0,0,1,196.52099609375,174.67799377441406)"><path fill="rgb(255,213,39)" fill-opacity="1" d=" M151.13800048828125,75.11000061035156 C164.97799682617188,50.76599884033203 170.031005859375,22.606000900268555 164.11500549316406,-7.175000190734863 C148.4239959716797,-86.15599822998047 61.35599899291992,-149.67799377441406 -26.993999481201172,-132.12600708007812 C-115.34500122070312,-114.5739974975586 -171.52099609375,-22.594999313354492 -155.8300018310547,56.38600158691406 C-149.42100524902344,88.6500015258789 -128.55799865722656,122.20700073242188 -102.23600006103516,141.76600646972656"/><path stroke-linecap="round" stroke-linejoin="miter" fill-opacity="0" stroke-miterlimit="10" stroke="rgb(249,143,22)" stroke-opacity="1" stroke-width="9.5" d=" M151.13800048828125,75.11000061035156 C164.97799682617188,50.76599884033203 170.031005859375,22.606000900268555 164.11500549316406,-7.175000190734863 C148.4239959716797,-86.15599822998047 61.35599899291992,-149.67799377441406 -26.993999481201172,-132.12600708007812 C-115.34500122070312,-114.5739974975586 -171.52099609375,-22.594999313354492 -155.8300018310547,56.38600158691406 C-149.42100524902344,88.6500015258789 -128.55799865722656,122.20700073242188 -102.23600006103516,141.76600646972656"/></g></g><g transform="matrix(0.9954691529273987,0.09508030116558075,-0.09508030116558075,0.9954691529273987,324.1509094238281,259.0389099121094)" opacity="1" style="display: block;"><g opacity="1" transform="matrix(1,0,0,1,88.44499969482422,-36.10200119018555)"><path fill="url(#__lottie_element_50)" fill-opacity="1" d=" M0,-32.88650131225586 C18.150060653686523,-32.88650131225586 32.88650131225586,-18.150060653686523 32.88650131225586,0 C32.88650131225586,18.150060653686523 18.150060653686523,32.88650131225586 0,32.88650131225586 C-18.150060653686523,32.88650131225586 -32.88650131225586,18.150060653686523 -32.88650131225586,0 C-32.88650131225586,-18.150060653686523 -18.150060653686523,-32.88650131225586 0,-32.88650131225586z"/></g></g><g transform="matrix(0.9954691529273987,0.09508030116558075,-0.09508030116558075,0.9954691529273987,108.6628646850586,255.572021484375)" opacity="1" style="display: block;"><g opacity="1" transform="matrix(1,0,0,1,88.44499969482422,-36.10200119018555)"><path fill="url(#__lottie_element_54)" fill-opacity="1" d=" M0,-32.88650131225586 C18.150060653686523,-32.88650131225586 32.88650131225586,-18.150060653686523 32.88650131225586,0 C32.88650131225586,18.150060653686523 18.150060653686523,32.88650131225586 0,32.88650131225586 C-18.150060653686523,32.88650131225586 -32.88650131225586,18.150060653686523 -32.88650131225586,0 C-32.88650131225586,-18.150060653686523 -18.150060653686523,-32.88650131225586 0,-32.88650131225586z"/></g></g><g transform="matrix(0.5760713815689087,0.940024197101593,-0.940024197101593,0.5760713815689087,275.27166748046875,-20.133272171020508)" opacity="1" style="display: block;"><g opacity="1" transform="matrix(1,0,0,1,49.17599868774414,105.06700134277344)"><path stroke-linecap="round" stroke-linejoin="round" fill-opacity="0" stroke="rgb(255,255,255)" stroke-opacity="1" stroke-width="10" d=" M19.926000595092773,89.20099639892578 C27.201000213623047,97.16799926757812 35.8849983215332,104.5989990234375 46.178001403808594,111.25900268554688"/></g></g><g transform="matrix(0.5760713815689087,0.940024197101593,-0.940024197101593,0.5760713815689087,275.27166748046875,-20.133272171020508)" opacity="1" style="display: block;"><g opacity="1" transform="matrix(1,0,0,1,49.17599868774414,105.06700134277344)"><path stroke-linecap="round" stroke-linejoin="round" fill-opacity="0" stroke="rgb(255,255,255)" stroke-opacity="1" stroke-width="10" d=" M7.406000137329102,-80.06800079345703 C-9.079999923706055,-57.856998443603516 -27.406999588012695,10.390000343322754 3.1440000534057617,65.80500030517578"/></g></g><g transform="matrix(1.083172082901001,0.20552805066108704,-0.20552805066108704,1.083172082901001,336.4333190917969,39.61143112182617)" opacity="1" style="display: block;"><g opacity="1" transform="matrix(1,0,0,1,71.9540023803711,84.74400329589844)"><path stroke-linecap="round" stroke-linejoin="round" fill-opacity="0" stroke="rgb(251,237,32)" stroke-opacity="1" stroke-width="10" d=" M42.849998474121094,36.52299880981445 C37.45100021362305,16.509000778198242 27.37299919128418,-2.749000072479248 13.333000183105469,-19.091999053955078 C-0.8579999804496765,-35.611000061035156 -19.097999572753906,-49.152000427246094 -40.643001556396484,-57.48400115966797"/></g></g><g transform="matrix(1.1016548871994019,-0.043131131678819656,0.04744858667254448,1.2119303941726685,224.4775848388672,329.9054260253906)" opacity="1" style="display: block;"><g opacity="1" transform="matrix(1,0,0,1,145.42599487304688,-113.83100128173828)"><path fill="rgb(0,0,0)" fill-opacity="1" d=" M0.5019999742507935,-5.607999801635742 C10.914999961853027,-5.835999965667725 17.582000732421875,-2.3410000801086426 20.214000701904297,1.1579999923706055 C21.888999938964844,3.384999990463257 21.6560001373291,5.0929999351501465 20.534000396728516,6.436999797821045 C19.38800048828125,7.809999942779541 17.513999938964844,7.519999980926514 15.718999862670898,6.5289998054504395 C12.656000137329102,4.8379998207092285 8.229000091552734,1.5759999752044678 -0.3569999933242798,1.7020000219345093 C-9.418000221252441,1.8350000381469727 -13.678999900817871,5.616000175476074 -16.785999298095703,7.089000225067139 C-18.73900032043457,8.015000343322754 -20.70599937438965,8.470999717712402 -21.934999465942383,6.5289998054504395 C-23.219999313354492,4.499000072479248 -22.593000411987305,2.437000036239624 -20.361000061035156,0.44999998807907104 C-17.06599998474121,-2.4839999675750732 -10.182000160217285,-5.375 0.5019999742507935,-5.607999801635742z"/><path stroke-linecap="butt" stroke-linejoin="miter" fill-opacity="0" stroke-miterlimit="4" stroke="rgb(0,0,0)" stroke-opacity="1" stroke-width="3" d=" M0.5019999742507935,-5.607999801635742 C10.914999961853027,-5.835999965667725 17.582000732421875,-2.3410000801086426 20.214000701904297,1.1579999923706055 C21.888999938964844,3.384999990463257 21.6560001373291,5.0929999351501465 20.534000396728516,6.436999797821045 C19.38800048828125,7.809999942779541 17.513999938964844,7.519999980926514 15.718999862670898,6.5289998054504395 C12.656000137329102,4.8379998207092285 8.229000091552734,1.5759999752044678 -0.3569999933242798,1.7020000219345093 C-9.418000221252441,1.8350000381469727 -13.678999900817871,5.616000175476074 -16.785999298095703,7.089000225067139 C-18.73900032043457,8.015000343322754 -20.70599937438965,8.470999717712402 -21.934999465942383,6.5289998054504395 C-23.219999313354492,4.499000072479248 -22.593000411987305,2.437000036239624 -20.361000061035156,0.44999998807907104 C-17.06599998474121,-2.4839999675750732 -10.182000160217285,-5.375 0.5019999742507935,-5.607999801635742z"/></g></g><g transform="matrix(0.2311820536851883,0.04143154248595238,-0.04557883366942406,0.25432339310646057,366.5656433105469,220.2034454345703)" opacity="1" style="display: none;"><g opacity="1" transform="matrix(1,0,0,1,105.927001953125,-161.32000732421875)"><path fill="rgb(255,255,255)" fill-opacity="1" d=" M0,-24.16900062561035 C11.273109436035156,-24.16900062561035 20.426000595092773,-13.338871002197266 20.426000595092773,0 C20.426000595092773,13.338871002197266 11.273109436035156,24.16900062561035 0,24.16900062561035 C-11.273109436035156,24.16900062561035 -20.426000595092773,13.338871002197266 -20.426000595092773,0 C-20.426000595092773,-13.338871002197266 -11.273109436035156,-24.16900062561035 0,-24.16900062561035z"/></g></g><g transform="matrix(1.2100461721420288,0.0825551375746727,-0.0825551375746727,1.2100461721420288,52.6701545715332,308.54144287109375)" opacity="1" style="display: block;"><g opacity="1" transform="matrix(1,0,0,1,145.42599487304688,-113.83100128173828)"><path fill="rgb(0,0,0)" fill-opacity="1" d=" M0.5019999742507935,-5.607999801635742 C10.914999961853027,-5.835999965667725 17.582000732421875,-2.3410000801086426 20.214000701904297,1.1579999923706055 C21.888999938964844,3.384999990463257 21.656082153320312,5.0929999351501465 20.534082412719727,6.436999797821045 C19.38808250427246,7.809999942779541 17.513999938964844,7.519999980926514 15.718999862670898,6.5289998054504395 C12.656000137329102,4.8379998207092285 8.229000091552734,1.5759999752044678 -0.3569999933242798,1.7020000219345093 C-9.418000221252441,1.8350000381469727 -13.678999900817871,5.616000175476074 -16.785999298095703,7.089000225067139 C-18.73900032043457,8.015000343322754 -20.70599937438965,8.470999717712402 -21.934999465942383,6.5289998054504395 C-23.219999313354492,4.499000072479248 -22.593000411987305,2.437000036239624 -20.361000061035156,0.44999998807907104 C-17.06599998474121,-2.4839999675750732 -10.182000160217285,-5.375 0.5019999742507935,-5.607999801635742z"/><path stroke-linecap="butt" stroke-linejoin="miter" fill-opacity="0" stroke-miterlimit="4" stroke="rgb(0,0,0)" stroke-opacity="1" stroke-width="3" d=" M0.5019999742507935,-5.607999801635742 C10.914999961853027,-5.835999965667725 17.582000732421875,-2.3410000801086426 20.214000701904297,1.1579999923706055 C21.888999938964844,3.384999990463257 21.656082153320312,5.0929999351501465 20.534082412719727,6.436999797821045 C19.38808250427246,7.809999942779541 17.513999938964844,7.519999980926514 15.718999862670898,6.5289998054504395 C12.656000137329102,4.8379998207092285 8.229000091552734,1.5759999752044678 -0.3569999933242798,1.7020000219345093 C-9.418000221252441,1.8350000381469727 -13.678999900817871,5.616000175476074 -16.785999298095703,7.089000225067139 C-18.73900032043457,8.015000343322754 -20.70599937438965,8.470999717712402 -21.934999465942383,6.5289998054504395 C-23.219999313354492,4.499000072479248 -22.593000411987305,2.437000036239624 -20.361000061035156,0.44999998807907104 C-17.06599998474121,-2.4839999675750732 -10.182000160217285,-5.375 0.5019999742507935,-5.607999801635742z"/></g></g><g transform="matrix(0.24261820316314697,-0.006029180716723204,0.006029180716723204,0.24261820316314697,230.45469665527344,209.3928680419922)" opacity="1" style="display: none;"><g opacity="1" transform="matrix(1,0,0,1,106.50800323486328,-164.6269989013672)"><path fill="rgb(255,255,255)" fill-opacity="1" d=" M0,-24.16900062561035 C11.273109436035156,-24.16900062561035 20.426000595092773,-13.338871002197266 20.426000595092773,0 C20.426000595092773,13.338871002197266 11.273109436035156,24.16900062561035 0,24.16900062561035 C-11.273109436035156,24.16900062561035 -20.426000595092773,13.338871002197266 -20.426000595092773,0 C-20.426000595092773,-13.338871002197266 -11.273109436035156,-24.16900062561035 0,-24.16900062561035z"/></g></g><g transform="matrix(1.075339436531067,0.2432050108909607,-0.2432050108909607,1.075339436531067,230.98681640625,161.9829559326172)" opacity="1" style="display: block;"><g opacity="1" transform="matrix(1,0,0,1,98.04100036621094,61.84400177001953)"><path fill="rgb(255,93,31)" fill-opacity="1" d=" M-85.91400146484375,23.849000930786133 C-83.25900268554688,39.36800003051758 -49.72600173950195,46.8650016784668 -8.732000350952148,38.72100067138672 C32.262001037597656,30.57699966430664 83.89600372314453,-6.783999919891357 57.33300018310547,-11.251999855041504 C64.80599975585938,-16.450000762939453 72.98500061035156,-33.749000549316406 31.31999969482422,-24.19499969482422 C18.22800064086914,-21.19300079345703 5.175000190734863,-45.176998138427734 -16.174999237060547,-40.93600082397461 C-40.00600051879883,-36.20199966430664 -40.321998596191406,-9.475000381469727 -60.066001892089844,-2.6649999618530273 C-76.27899932861328,2.927999973297119 -89.0009994506836,5.804999828338623 -85.91400146484375,23.849000930786133z"/><path stroke-linecap="round" stroke-linejoin="round" fill-opacity="0" stroke="rgb(207,53,2)" stroke-opacity="1" stroke-width="8" d=" M-85.91400146484375,23.849000930786133 C-83.25900268554688,39.36800003051758 -49.72600173950195,46.8650016784668 -8.732000350952148,38.72100067138672 C32.262001037597656,30.57699966430664 83.89600372314453,-6.783999919891357 57.33300018310547,-11.251999855041504 C64.80599975585938,-16.450000762939453 72.98500061035156,-33.749000549316406 31.31999969482422,-24.19499969482422 C18.22800064086914,-21.19300079345703 5.175000190734863,-45.176998138427734 -16.174999237060547,-40.93600082397461 C-40.00600051879883,-36.20199966430664 -40.321998596191406,-9.475000381469727 -60.066001892089844,-2.6649999618530273 C-76.27899932861328,2.927999973297119 -89.0009994506836,5.804999828338623 -85.91400146484375,23.849000930786133z"/></g></g><g transform="matrix(1.075339436531067,0.2432050108909607,-0.2432050108909607,1.075339436531067,237.6650848388672,198.35655212402344)" opacity="1" style="display: block;"><g opacity="1" transform="matrix(1,0,0,1,81.50399780273438,36.75899887084961)"><path stroke-linecap="round" stroke-linejoin="round" fill-opacity="0" stroke="rgb(125,9,9)" stroke-opacity="1" stroke-width="7.2" d=" M61.130001068115234,-17.52199935913086 C26.847000122070312,7.045000076293945 -20.51300048828125,22.677000045776367 -67.11699676513672,13.595999717712402"/></g></g><g transform="matrix(1.075339436531067,0.2432050108909607,-0.2432050108909607,1.075339436531067,256.7425537109375,202.86676025390625)" opacity="1" style="display: block;"><g opacity="1" transform="matrix(1,0,0,1,24.70599937438965,22.10700035095215)"><path stroke-linecap="round" stroke-linejoin="round" fill-opacity="0" stroke="rgb(255,180,132)" stroke-opacity="1" stroke-width="8" d=" M-19.70599937438965,16.01099967956543 C-2.000999927520752,17.06800079345703 7.283999919891357,7.409999847412109 18.496000289916992,-14.687999725341797"/></g></g><g transform="matrix(-0.8365973830223083,0.5478164553642273,0.5478164553642273,0.8365973830223083,123.70842742919922,180.40130615234375)" opacity="1" style="display: block;"><path fill="rgb(255,213,39)" fill-opacity="1" d=" M82.33,175.36 C90.65,137.82 84,89.2 77.31,54.22 C71.75,30.59 58.32,25.3 47.76,27.8 C38.83,29.69 32.15,40.71 28.78,57.05 C28.01,73.38 23.8,111.73 14.59,140.31"/><g opacity="1" transform="matrix(1,0,0,1,74.38400268554688,100.1780014038086)"><path stroke-linecap="round" stroke-linejoin="miter" fill-opacity="0" stroke-miterlimit="10" stroke="rgb(249,143,22)" stroke-opacity="1" stroke-width="10" d=" M7.947000026702881,75.1780014038086 C16.26226806640625,37.64130401611328 9.61469841003418,-10.979825973510742 2.92891263961792,-45.95673370361328 C-2.635180950164795,-69.58706665039062 -16.05927848815918,-74.87370300292969 -26.626502990722656,-72.37577056884766 C-35.55197525024414,-70.49129486083984 -42.23843765258789,-59.46588897705078 -45.6051025390625,-43.12720489501953 C-46.37662124633789,-26.798524856567383 -50.58439254760742,11.55496597290039 -59.793418884277344,40.13363265991211"/></g></g><g transform="matrix(1.0349925756454468,-0.1768844723701477,0.1768844723701477,1.0349925756454468,357.2538146972656,202.28390502929688)" opacity="1" style="display: block;"><g opacity="1" transform="matrix(1,0,0,1,35.28499984741211,48.323001861572266)"><path stroke-linecap="round" stroke-linejoin="round" fill-opacity="0" stroke="rgb(251,237,32)" stroke-opacity="1" stroke-width="8" d=" M-230.5919952392578,14.715999603271484 C-249.24600219726562,-6.267000198364258 -261.1449890136719,-25.98699951171875 -267.92401123046875,-47.74300003051758"/></g></g><g transform="matrix(1.0349925756454468,-0.1768844723701477,0.1768844723701477,1.0349925756454468,357.2538146972656,202.28390502929688)" opacity="1" style="display: block;"><g opacity="1" transform="matrix(1,0,0,1,35.28499984741211,48.323001861572266)"><path stroke-linecap="round" stroke-linejoin="round" fill-opacity="0" stroke="rgb(255,255,255)" stroke-opacity="1" stroke-width="8" d=" M-280.0270080566406,0.09099999815225601 C-284.33099365234375,-17.708999633789062 -292.7720031738281,-37.33599853515625 -284.510009765625,-52.018001556396484"/></g></g></g><g clip-path="url(#__lottie_element_103)" transform="matrix(1,0,0,1,0,0)" opacity="1" style="display: none;"><g clip-path="url(#__lottie_element_107)" transform="matrix(1,0,0,0.800000011920929,13,112.39999389648438)" opacity="1" style="display: block;"><g transform="matrix(1.5022599697113037,0,0,1.5022599697113037,-7.507354736328125,334.35150146484375)" opacity="1" style="display: none;"><g opacity="1" transform="matrix(1,0,0,1,176.4949951171875,64.81999969482422)"><path stroke-linecap="round" stroke-linejoin="round" fill-opacity="0" stroke="rgb(3,180,255)" stroke-opacity="1" stroke-width="0" d=" M151.4949951171875,0 C151.4949951171875,21.992000579833984 83.66899871826172,39.81999969482422 0.0010000000474974513,39.81999969482422 C-83.66699981689453,39.81999969482422 -151.49400329589844,21.992000579833984 -151.49400329589844,0 C-151.49400329589844,-21.992000579833984 -83.66699981689453,-39.81999969482422 0.0010000000474974513,-39.81999969482422 C83.66899871826172,-39.81999969482422 151.4949951171875,-21.992000579833984 151.4949951171875,0z"/></g></g></g><g clip-path="url(#__lottie_element_204)" transform="matrix(1,0,0,0.800000011920929,13,112.39999389648438)" opacity="1" style="display: block;"><g transform="matrix(1.0265437364578247,0,0,1.0265437364578247,76.45417785644531,365.18743896484375)" opacity="1" style="display: block;"><g opacity="1" transform="matrix(1,0,0,1,176.4949951171875,64.81999969482422)"><path stroke-linecap="round" stroke-linejoin="round" fill-opacity="0" stroke="rgb(3,180,255)" stroke-opacity="1" stroke-width="5.265124566131595" d=" M151.4949951171875,0 C151.4949951171875,21.992000579833984 83.66899871826172,39.81999969482422 0.0010000000474974513,39.81999969482422 C-83.66699981689453,39.81999969482422 -151.49400329589844,21.992000579833984 -151.49400329589844,0 C-151.49400329589844,-21.992000579833984 -83.66699981689453,-39.81999969482422 0.0010000000474974513,-39.81999969482422 C83.66899871826172,-39.81999969482422 151.4949951171875,-21.992000579833984 151.4949951171875,0z"/></g></g></g><g clip-path="url(#__lottie_element_111)" transform="matrix(1,0,0,0.800000011920929,13,112.39999389648438)" opacity="1" style="display: none;"><g transform="matrix(1.5022599697113037,0,0,1.5022599697113037,-7.507354736328125,334.35150146484375)" opacity="1" style="display: none;"><g opacity="1" transform="matrix(1,0,0,1,176.4949951171875,64.81999969482422)"><path stroke-linecap="round" stroke-linejoin="round" fill-opacity="0" stroke="rgb(3,180,255)" stroke-opacity="1" stroke-width="0" d=" M151.4949951171875,0 C151.4949951171875,21.992000579833984 83.66899871826172,39.81999969482422 0.0010000000474974513,39.81999969482422 C-83.66699981689453,39.81999969482422 -151.49400329589844,21.992000579833984 -151.49400329589844,0 C-151.49400329589844,-21.992000579833984 -83.66699981689453,-39.81999969482422 0.0010000000474974513,-39.81999969482422 C83.66899871826172,-39.81999969482422 151.4949951171875,-21.992000579833984 151.4949951171875,0z"/></g></g></g><g transform="matrix(1.0660789012908936,0.03894408792257309,-0.03771822154521942,1.032521367073059,58.91987228393555,190.32257080078125)" opacity="1" style="display: block;"><path fill="rgb(255,213,39)" fill-opacity="1" d=" M87.25,255.02 C50.72,246.05 37.38,204.69 37.38,173.7 C37.38,143.19 42.43,113.55 75.41,86.2 C105.15,61.53 163.74,32.48 208.14,31.9 C278.33,30.98 321.45,63.24 330.68,74.55 C347.92,95.7 364.79,127.46 366.2,173.4 C367.24,207.08 349.11,245.79 298.59,254.1 C226.17,266.01 150.01,270.44 87.25,255.02z"/><g opacity="1" transform="matrix(1,0,0,1,205.83900451660156,156.75)"><path stroke-linecap="round" stroke-linejoin="miter" fill-opacity="0" stroke-miterlimit="10" stroke="rgb(249,143,22)" stroke-opacity="1" stroke-width="20" d=" M-118.58899688720703,98.27200317382812 C-155.11500549316406,89.30000305175781 -168.45799255371094,47.94300079345703 -168.45799255371094,16.94700050354004 C-168.45799255371094,-13.5649995803833 -163.40899658203125,-43.196998596191406 -130.43099975585938,-70.55000305175781 C-100.68699645996094,-95.22000122070312 -42.097999572753906,-124.2699966430664 2.305000066757202,-124.8499984741211 C72.48799896240234,-125.76699829101562 115.61199951171875,-93.51000213623047 124.83799743652344,-82.19599914550781 C142.08200073242188,-61.04999923706055 158.9550018310547,-29.285999298095703 160.36300659179688,16.645000457763672 C161.39599609375,50.334999084472656 143.27200317382812,89.04399871826172 92.75499725341797,97.35099792480469 C20.326000213623047,109.26100158691406 -55.83100128173828,113.68699645996094 -118.58899688720703,98.27200317382812z"/></g></g><g transform="matrix(1.0660789012908936,0.03894408792257309,-0.03771822154521942,1.032521367073059,-213.7279052734375,195.7876739501953)" opacity="1" style="display: block;"><path fill="rgb(255,213,39)" fill-opacity="1" d=" M320.91,147.93 C304.2,124.89 294,131.79 290.02,139.3 C275.34,167.01 303.05,228.53 349.7,244.26"/><g opacity="1" transform="matrix(1,0,0,1,205.83900451660156,156.75)"><path stroke-linecap="round" stroke-linejoin="miter" fill-opacity="0" stroke-miterlimit="10" stroke="rgb(249,143,22)" stroke-opacity="1" stroke-width="10" d=" M115.07219696044922,-8.821486473083496 C98.35781860351562,-31.85848617553711 88.15853881835938,-24.955520629882812 84.1819839477539,-17.451520919799805 C69.49693298339844,10.260478973388672 97.21446990966797,71.78282165527344 143.85891723632812,87.50851440429688"/></g></g><g transform="matrix(1.0660789012908936,0.03894408792257309,-0.03771822154521942,1.032521367073059,58.91987228393555,190.32257080078125)" opacity="1" style="display: block;"><path fill="rgb(255,213,39)" fill-opacity="1" d=" M87.25,255.02 C50.72,246.05 37.38,204.69 37.38,173.7 C37.38,143.19 42.43,113.55 75.41,86.2 C105.15,61.53 163.74,32.48 208.14,31.9 C278.33,30.98 321.45,63.24 330.68,74.55 C347.92,95.7 364.79,127.46 366.2,173.4 C367.24,207.08 349.11,245.79 298.59,254.1 C226.17,266.01 150.01,270.44 87.25,255.02z"/><g opacity="1" transform="matrix(1,0,0,1,205.83900451660156,156.75)"/></g><g transform="matrix(1.0635809898376465,-0.07713000476360321,0.0821126252412796,1.0303727388381958,62.75237274169922,289.7243347167969)" opacity="1" style="display: block;"><g opacity="1" transform="matrix(1,0,0,1,38.819000244140625,73.84600067138672)"><path stroke-linecap="round" stroke-linejoin="round" fill-opacity="0" stroke="rgb(255,255,255)" stroke-opacity="1" stroke-width="10" d=" M-3.7090001106262207,25.211999893188477 C-0.9760000109672546,46.755001068115234 7.459000110626221,68.28399658203125 25.361000061035156,78.7030029296875"/></g></g><g transform="matrix(1.0660789012908936,0.03894408792257309,-0.03771822154521942,1.032521367073059,386.75970458984375,339.986083984375)" opacity="1" style="display: block;"><g opacity="1" transform="matrix(1,0,0,1,35.6879997253418,48.13999938964844)"><path stroke-linecap="round" stroke-linejoin="round" fill-opacity="0" stroke="rgb(251,237,32)" stroke-opacity="1" stroke-width="10" d=" M-21.197999954223633,45.48099899291992 C-3.802000045776367,32.43199920654297 15.065999984741211,8.0600004196167 -4.7210001945495605,-53.111000061035156"/></g></g><g transform="matrix(1.015938639640808,-0.0018200830090790987,0.004250305239111185,0.9840502142906189,270.3976745605469,261.4508972167969)" opacity="1" style="display: block;"><g opacity="1" transform="matrix(1,0,0,1,150.06199645996094,56.077999114990234)"><path fill="rgb(255,213,39)" fill-opacity="1" d=" M0,-11.57800006866455 C6.380791664123535,-11.57800006866455 11.56149959564209,-6.389898300170898 11.56149959564209,0 C11.56149959564209,6.389898300170898 6.380791664123535,11.57800006866455 0,11.57800006866455 C-6.380791664123535,11.57800006866455 -11.56149959564209,6.389898300170898 -11.56149959564209,0 C-11.56149959564209,-6.389898300170898 -6.380791664123535,-11.57800006866455 0,-11.57800006866455z"/></g></g><g transform="matrix(0.9398587942123413,-0.3715282380580902,-0.3857651352882385,-0.9112215638160706,404.0720520019531,467.4147033691406)" opacity="1" style="display: block;"><path fill="rgb(255,213,39)" fill-opacity="1" d=" M76.17,180.99 C121.8,137.6 112.19,74.68 89.6,48.17 C76.35,33.26 61.02,33.52 58.73,45.72 C69.61,67.89 82.18,97.43 75.56,128.72"/><g opacity="1" transform="matrix(1,0,0,1,74.38400268554688,100.1780014038086)"><path stroke-linecap="round" stroke-linejoin="miter" fill-opacity="0" stroke-miterlimit="10" stroke="rgb(249,143,22)" stroke-opacity="1" stroke-width="10" d=" M1.7844860553741455,80.81025695800781 C47.41498947143555,37.42135238647461 37.80929946899414,-25.500734329223633 15.214672088623047,-52.012176513671875 C1.9655957221984863,-66.91568756103516 -13.359380722045898,-66.65336608886719 -15.649519920349121,-54.45637893676758 C-4.772231101989746,-32.285858154296875 7.795335292816162,-2.7487428188323975 1.1714913845062256,28.54636573791504"/></g></g><g transform="matrix(1.066077709197998,0.03894403204321861,-0.03771816939115524,1.0325201749801636,366.6492614746094,253.95008850097656)" opacity="1" style="display: block;"><g opacity="1" transform="matrix(1,0,0,1,35.28499984741211,48.323001861572266)"><path stroke-linecap="round" stroke-linejoin="round" fill-opacity="0" stroke="rgb(251,237,32)" stroke-opacity="1" stroke-width="7.28935671841841" d=" M56.000999450683594,65.65899658203125 C52.46500015258789,35.63100051879883 47.314998626708984,15.96399974822998 20.81599998474121,-7.093999862670898"/></g></g><g transform="matrix(1.102391004562378,0.19455397129058838,-0.1982875019311905,1.0673303604125977,79.3375244140625,-52.8447380065918)" opacity="1" style="display: block;"><g opacity="1" transform="matrix(1,0,0,1,196.52099609375,174.67799377441406)"><path fill="rgb(255,213,39)" fill-opacity="1" d=" M150.10000610351562,76.9000015258789 C164.7220001220703,52.1510009765625 170.177001953125,23.33799934387207 164.11500549316406,-7.175000190734863 C148.4239959716797,-86.15599822998047 61.35599899291992,-149.67799377441406 -26.993999481201172,-132.12600708007812 C-115.34500122070312,-114.5739974975586 -171.52099609375,-22.594999313354492 -155.8300018310547,56.38600158691406 C-149.46299743652344,88.44000244140625 -128.82899475097656,121.76899719238281 -102.75,141.3820037841797"/><path stroke-linecap="round" stroke-linejoin="miter" fill-opacity="0" stroke-miterlimit="10" stroke="rgb(249,143,22)" stroke-opacity="1" stroke-width="9.5" d=" M150.10000610351562,76.9000015258789 C164.7220001220703,52.1510009765625 170.177001953125,23.33799934387207 164.11500549316406,-7.175000190734863 C148.4239959716797,-86.15599822998047 61.35599899291992,-149.67799377441406 -26.993999481201172,-132.12600708007812 C-115.34500122070312,-114.5739974975586 -171.52099609375,-22.594999313354492 -155.8300018310547,56.38600158691406 C-149.46299743652344,88.44000244140625 -128.82899475097656,121.76899719238281 -102.75,141.3820037841797"/></g></g><g style="display: block;" transform="matrix(1.0119894742965698,0.08907201886177063,-0.08959731459617615,0.9800129532814026,301.45135498046875,261.94744873046875)" opacity="1"><g opacity="1" transform="matrix(1,0,0,1,88.44499969482422,-36.10200119018555)"><path fill="url(#__lottie_element_149)" fill-opacity="1" d=" M0,-32.88650131225586 C18.150060653686523,-32.88650131225586 32.88650131225586,-18.150060653686523 32.88650131225586,0 C32.88650131225586,18.150060653686523 18.150060653686523,32.88650131225586 0,32.88650131225586 C-18.150060653686523,32.88650131225586 -32.88650131225586,18.150060653686523 -32.88650131225586,0 C-32.88650131225586,-18.150060653686523 -18.150060653686523,-32.88650131225586 0,-32.88650131225586z"/></g></g><g style="display: block;" transform="matrix(1.0119894742965698,0.08907201886177063,-0.08959731459617615,0.9800129532814026,82.50747680664062,259.5080261230469)" opacity="1"><g opacity="1" transform="matrix(1,0,0,1,88.44499969482422,-36.10200119018555)"><path fill="url(#__lottie_element_153)" fill-opacity="1" d=" M0,-32.88650131225586 C18.150060653686523,-32.88650131225586 32.88650131225586,-18.150060653686523 32.88650131225586,0 C32.88650131225586,18.150060653686523 18.150060653686523,32.88650131225586 0,32.88650131225586 C-18.150060653686523,32.88650131225586 -32.88650131225586,18.150060653686523 -32.88650131225586,0 C-32.88650131225586,-18.150060653686523 -18.150060653686523,-32.88650131225586 0,-32.88650131225586z"/></g></g><g transform="matrix(0.5943521857261658,0.920918881893158,-0.949383556842804,0.5735446810722351,252.8186798095703,-12.405961990356445)" opacity="1" style="display: block;"><g opacity="1" transform="matrix(1,0,0,1,49.17599868774414,105.06700134277344)"><path stroke-linecap="round" stroke-linejoin="round" fill-opacity="0" stroke="rgb(255,255,255)" stroke-opacity="1" stroke-width="10" d=" M21.15399932861328,90.5270004272461 C28.52899932861328,98.37200164794922 37.301998138427734,105.6760025024414 47.667999267578125,112.20999908447266"/></g></g><g transform="matrix(0.5943521857261658,0.920918881893158,-0.949383556842804,0.5735446810722351,252.8186798095703,-12.405961990356445)" opacity="1" style="display: block;"><g opacity="1" transform="matrix(1,0,0,1,49.17599868774414,105.06700134277344)"><path stroke-linecap="round" stroke-linejoin="round" fill-opacity="0" stroke="rgb(255,255,255)" stroke-opacity="1" stroke-width="10" d=" M3.11899995803833,-73.30799865722656 C-12.557999610900879,-44.928001403808594 -25.913999557495117,20.749000549316406 7.144999980926514,72.54100036621094"/></g></g><g transform="matrix(1.102391004562378,0.19455397129058838,-0.1982875019311905,1.0673303604125977,315.5325927734375,45.95016860961914)" opacity="1" style="display: block;"><g opacity="1" transform="matrix(1,0,0,1,71.9540023803711,84.74400329589844)"><path stroke-linecap="round" stroke-linejoin="round" fill-opacity="0" stroke="rgb(251,237,32)" stroke-opacity="1" stroke-width="10" d=" M40.900001525878906,29.95199966430664 C35.1870002746582,12.3100004196167 25.82900047302246,-4.546000003814697 13.333000183105469,-19.091999053955078 C-2.2239999771118164,-37.20100021362305 -22.645999908447266,-51.73099899291992 -46.95399856567383,-59.74300003051758"/></g></g><g transform="matrix(1.129697561264038,-0.04787074774503708,0.056722722947597504,1.1923772096633911,199.21383666992188,332.2610778808594)" opacity="1" style="display: block;"><g opacity="1" transform="matrix(1,0,0,1,145.42599487304688,-113.83100128173828)"><path fill="rgb(0,0,0)" fill-opacity="1" d=" M0.5019999742507935,-5.607999801635742 C10.914999961853027,-5.835999965667725 17.582000732421875,-2.3410000801086426 20.214000701904297,1.1579999923706055 C21.888999938964844,3.384999990463257 21.6560001373291,5.0929999351501465 20.534000396728516,6.436999797821045 C19.38800048828125,7.809999942779541 17.513999938964844,7.519999980926514 15.718999862670898,6.5289998054504395 C12.656000137329102,4.8379998207092285 8.229000091552734,1.5759999752044678 -0.3569999933242798,1.7020000219345093 C-9.418000221252441,1.8350000381469727 -13.678999900817871,5.616000175476074 -16.785999298095703,7.089000225067139 C-18.73900032043457,8.015000343322754 -20.70599937438965,8.470999717712402 -21.934999465942383,6.5289998054504395 C-23.219999313354492,4.499000072479248 -22.593000411987305,2.437000036239624 -20.361000061035156,0.44999998807907104 C-17.06599998474121,-2.4839999675750732 -10.182000160217285,-5.375 0.5019999742507935,-5.607999801635742z"/><path stroke-linecap="butt" stroke-linejoin="miter" fill-opacity="0" stroke-miterlimit="4" stroke="rgb(0,0,0)" stroke-opacity="1" stroke-width="3" d=" M0.5019999742507935,-5.607999801635742 C10.914999961853027,-5.835999965667725 17.582000732421875,-2.3410000801086426 20.214000701904297,1.1579999923706055 C21.888999938964844,3.384999990463257 21.6560001373291,5.0929999351501465 20.534000396728516,6.436999797821045 C19.38800048828125,7.809999942779541 17.513999938964844,7.519999980926514 15.718999862670898,6.5289998054504395 C12.656000137329102,4.8379998207092285 8.229000091552734,1.5759999752044678 -0.3569999933242798,1.7020000219345093 C-9.418000221252441,1.8350000381469727 -13.678999900817871,5.616000175476074 -16.785999298095703,7.089000225067139 C-18.73900032043457,8.015000343322754 -20.70599937438965,8.470999717712402 -21.934999465942383,6.5289998054504395 C-23.219999313354492,4.499000072479248 -22.593000411987305,2.437000036239624 -20.361000061035156,0.44999998807907104 C-17.06599998474121,-2.4839999675750732 -10.182000160217285,-5.375 0.5019999742507935,-5.607999801635742z"/></g></g><g transform="matrix(0.25823765993118286,0.008433002978563309,-0.008433002978563309,0.25823765993118286,296.6966552734375,208.96426391601562)" opacity="1" style="display: none;"><g opacity="1" transform="matrix(1,0,0,1,105.927001953125,-161.32000732421875)"><path fill="rgb(255,255,255)" fill-opacity="1" d=" M0,-24.16900062561035 C11.273109436035156,-24.16900062561035 20.426000595092773,-13.338871002197266 20.426000595092773,0 C20.426000595092773,13.338871002197266 11.273109436035156,24.16900062561035 0,24.16900062561035 C-11.273109436035156,24.16900062561035 -20.426000595092773,13.338871002197266 -20.426000595092773,0 C-20.426000595092773,-13.338871002197266 -11.273109436035156,-24.16900062561035 0,-24.16900062561035z"/></g></g><g transform="matrix(0.2658205032348633,0.012917024083435535,-0.013749144040048122,0.24534177780151367,295.91497802734375,226.39956665039062)" opacity="1" style="display: none;"><g opacity="1" transform="matrix(1,0,0,1,105.927001953125,-161.32000732421875)"><path fill="rgb(255,255,255)" fill-opacity="1" d=" M0,-24.16900062561035 C11.273109436035156,-24.16900062561035 20.426000595092773,-13.338871002197266 20.426000595092773,0 C20.426000595092773,13.338871002197266 11.273109436035156,24.16900062561035 0,24.16900062561035 C-11.273109436035156,24.16900062561035 -20.426000595092773,13.338871002197266 -20.426000595092773,0 C-20.426000595092773,-13.338871002197266 -11.273109436035156,-24.16900062561035 0,-24.16900062561035z"/></g></g><g transform="matrix(1.2244929075241089,0.07544580847024918,-0.07536441832780838,1.1911091804504395,26.87699317932129,311.9949035644531)" opacity="1" style="display: block;"><g opacity="1" transform="matrix(1,0,0,1,145.42599487304688,-113.83100128173828)"><path fill="rgb(0,0,0)" fill-opacity="1" d=" M0.5019999742507935,-5.607999801635742 C10.914999961853027,-5.835999965667725 17.582000732421875,-2.3410000801086426 20.214000701904297,1.1579999923706055 C21.888999938964844,3.384999990463257 21.656972885131836,5.0929999351501465 20.53497314453125,6.436999797821045 C19.388973236083984,7.809999942779541 17.513999938964844,7.519999980926514 15.718999862670898,6.5289998054504395 C12.656000137329102,4.8379998207092285 8.229000091552734,1.5759999752044678 -0.3569999933242798,1.7020000219345093 C-9.418000221252441,1.8350000381469727 -13.678999900817871,5.616000175476074 -16.785999298095703,7.089000225067139 C-18.73900032043457,8.015000343322754 -20.70599937438965,8.470999717712402 -21.934999465942383,6.5289998054504395 C-23.219999313354492,4.499000072479248 -22.593000411987305,2.437000036239624 -20.361000061035156,0.44999998807907104 C-17.06599998474121,-2.4839999675750732 -10.182000160217285,-5.375 0.5019999742507935,-5.607999801635742z"/><path stroke-linecap="butt" stroke-linejoin="miter" fill-opacity="0" stroke-miterlimit="4" stroke="rgb(0,0,0)" stroke-opacity="1" stroke-width="3" d=" M0.5019999742507935,-5.607999801635742 C10.914999961853027,-5.835999965667725 17.582000732421875,-2.3410000801086426 20.214000701904297,1.1579999923706055 C21.888999938964844,3.384999990463257 21.656972885131836,5.0929999351501465 20.53497314453125,6.436999797821045 C19.388973236083984,7.809999942779541 17.513999938964844,7.519999980926514 15.718999862670898,6.5289998054504395 C12.656000137329102,4.8379998207092285 8.229000091552734,1.5759999752044678 -0.3569999933242798,1.7020000219345093 C-9.418000221252441,1.8350000381469727 -13.678999900817871,5.616000175476074 -16.785999298095703,7.089000225067139 C-18.73900032043457,8.015000343322754 -20.70599937438965,8.470999717712402 -21.934999465942383,6.5289998054504395 C-23.219999313354492,4.499000072479248 -22.593000411987305,2.437000036239624 -20.361000061035156,0.44999998807907104 C-17.06599998474121,-2.4839999675750732 -10.182000160217285,-5.375 0.5019999742507935,-5.607999801635742z"/></g></g><g transform="matrix(0.2282976508140564,-0.039221733808517456,0.040809523314237595,0.23923559486865997,165.43812561035156,217.7548065185547)" opacity="1" style="display: none;"><g opacity="1" transform="matrix(1,0,0,1,106.50800323486328,-164.6269989013672)"><path fill="rgb(255,255,255)" fill-opacity="1" d=" M0,-24.16900062561035 C11.273109436035156,-24.16900062561035 20.426000595092773,-13.338871002197266 20.426000595092773,0 C20.426000595092773,13.338871002197266 11.273109436035156,24.16900062561035 0,24.16900062561035 C-11.273109436035156,24.16900062561035 -20.426000595092773,13.338871002197266 -20.426000595092773,0 C-20.426000595092773,-13.338871002197266 -11.273109436035156,-24.16900062561035 0,-24.16900062561035z"/></g></g><g transform="matrix(0.24499686062335968,-0.01064564473927021,0.012666506692767143,0.23052595555782318,153.81085205078125,223.6316680908203)" opacity="1" style="display: none;"><g opacity="1" transform="matrix(1,0,0,1,106.50800323486328,-164.6269989013672)"><path fill="rgb(255,255,255)" fill-opacity="1" d=" M0,-24.16900062561035 C11.273109436035156,-24.16900062561035 20.426000595092773,-13.338871002197266 20.426000595092773,0 C20.426000595092773,13.338871002197266 11.273109436035156,24.16900062561035 0,24.16900062561035 C-11.273109436035156,24.16900062561035 -20.426000595092773,13.338871002197266 -20.426000595092773,0 C-20.426000595092773,-13.338871002197266 -11.273109436035156,-24.16900062561035 0,-24.16900062561035z"/></g></g><g transform="matrix(1.094172716140747,0.23447267711162567,-0.2395193874835968,1.0592769384384155,206.1215057373047,166.86056518554688)" opacity="1" style="display: block;"><g opacity="1" transform="matrix(1,0,0,1,98.04100036621094,61.84400177001953)"><path fill="rgb(255,93,31)" fill-opacity="1" d=" M-85.44852447509766,23.7708740234375 C-83.3387680053711,39.32527160644531 -49.719635009765625,46.89557647705078 -8.732000350952148,38.72100067138672 C32.53534698486328,30.48508071899414 83.80205535888672,-6.440919399261475 57.90891647338867,-11.588135719299316 C64.78256225585938,-17.40333366394043 71.70652770996094,-33.480186462402344 30.90458106994629,-24.057941436767578 C17.356168746948242,-20.97366714477539 4.794013500213623,-45.06829833984375 -16.555986404418945,-40.82729721069336 C-40.386985778808594,-36.093299865722656 -40.28120040893555,-9.15911865234375 -60.066001892089844,-2.6649999618530273 C-76.94432830810547,2.6207995414733887 -89.1513671875,6.324588298797607 -85.44852447509766,23.7708740234375z"/><path stroke-linecap="round" stroke-linejoin="round" fill-opacity="0" stroke="rgb(207,53,2)" stroke-opacity="1" stroke-width="8" d=" M-85.44852447509766,23.7708740234375 C-83.3387680053711,39.32527160644531 -49.719635009765625,46.89557647705078 -8.732000350952148,38.72100067138672 C32.53534698486328,30.48508071899414 83.80205535888672,-6.440919399261475 57.90891647338867,-11.588135719299316 C64.78256225585938,-17.40333366394043 71.70652770996094,-33.480186462402344 30.90458106994629,-24.057941436767578 C17.356168746948242,-20.97366714477539 4.794013500213623,-45.06829833984375 -16.555986404418945,-40.82729721069336 C-40.386985778808594,-36.093299865722656 -40.28120040893555,-9.15911865234375 -60.066001892089844,-2.6649999618530273 C-76.94432830810547,2.6207995414733887 -89.1513671875,6.324588298797607 -85.44852447509766,23.7708740234375z"/></g></g><g transform="matrix(1.094172716140747,0.23447267711162567,-0.2395193874835968,1.0592769384384155,213.16177368164062,202.62359619140625)" opacity="1" style="display: block;"><g opacity="1" transform="matrix(1,0,0,1,81.50399780273438,36.75899887084961)"><path stroke-linecap="round" stroke-linejoin="round" fill-opacity="0" stroke="rgb(125,9,9)" stroke-opacity="1" stroke-width="7.2" d=" M61.07608413696289,-17.74702262878418 C26.057634353637695,7.910369396209717 -23.148653030395508,22.946197509765625 -67.60504913330078,13.754470825195312"/></g></g><g transform="matrix(1.094172716140747,0.23447267711162567,-0.2395193874835968,1.0592769384384155,232.57472229003906,206.97576904296875)" opacity="1" style="display: block;"><g opacity="1" transform="matrix(1,0,0,1,24.70599937438965,22.10700035095215)"><path stroke-linecap="round" stroke-linejoin="round" fill-opacity="0" stroke="rgb(255,180,132)" stroke-opacity="1" stroke-width="8" d=" M-16.94300079345703,16.08799934387207 C-0.40299999713897705,15.99899959564209 8.543000221252441,5.480000019073486 19.70599937438965,-17.106000900268555"/></g></g><g transform="matrix(-0.5623700022697449,0.818265438079834,0.8461023569107056,0.5466257929801941,24.172670364379883,211.078125)" opacity="1" style="display: block;"><path fill="rgb(255,213,39)" fill-opacity="1" d=" M82.33,175.36 C75.5,132.02 72.97,100.85 78.12,62.2 C81.32,38.11 70.7,30.18 59.48,30.85 C49.15,31.46 38.89,44.43 29.01,61.76 C21.86,74.29 11.69,109.2 6.96,153.32"/><g opacity="1" transform="matrix(1,0,0,1,74.38400268554688,100.1780014038086)"><path stroke-linecap="round" stroke-linejoin="miter" fill-opacity="0" stroke-miterlimit="10" stroke="rgb(249,143,22)" stroke-opacity="1" stroke-width="10" d=" M7.947000026702881,75.1780014038086 C1.1169999837875366,31.83799934387207 -1.4119999408721924,0.675000011920929 3.7330000400543213,-37.98099899291992 C6.939000129699707,-62.069000244140625 -3.681999921798706,-69.99800109863281 -14.904000282287598,-69.33200073242188 C-25.238000869750977,-68.71900177001953 -35.49399948120117,-55.75 -45.375,-38.41899871826172 C-52.52000045776367,-25.886999130249023 -62.69900131225586,9.02299976348877 -67.42400360107422,53.141998291015625"/></g></g><g transform="matrix(0.8959571123123169,-0.5587654113769531,0.5789691209793091,0.8691350817680359,251.04928588867188,140.95391845703125)" opacity="1" style="display: block;"><g opacity="1" transform="matrix(1,0,0,1,35.28499984741211,48.323001861572266)"><path stroke-linecap="round" stroke-linejoin="round" fill-opacity="0" stroke="rgb(251,237,32)" stroke-opacity="1" stroke-width="8" d=" M-222.30299377441406,14.178999900817871 C-239.95799255371094,-14.189000129699707 -252.65699768066406,-28.702999114990234 -266.4960021972656,-37.801998138427734"/></g></g><g transform="matrix(0.8959571123123169,-0.5587654113769531,0.5789691209793091,0.8691350817680359,251.04928588867188,140.95391845703125)" opacity="1" style="display: block;"><g opacity="1" transform="matrix(1,0,0,1,35.28499984741211,48.323001861572266)"><path stroke-linecap="round" stroke-linejoin="round" fill-opacity="0" stroke="rgb(255,255,255)" stroke-opacity="1" stroke-width="8" d=" M-270.2539978027344,3.6670000553131104 C-275.64300537109375,-15.890000343322754 -292.3680114746094,-33.15800094604492 -288.34100341796875,-45.33399963378906"/></g></g></g></g></svg>