<svg xmlns="http://www.w3.org/2000/svg" viewBox="0 0 512 512" width="512" height="512" preserveAspectRatio="xMidYMid meet" style="width: 100%; height: 100%; transform: translate3d(0px, 0px, 0px); content-visibility: visible;"><defs><clipPath id="__lottie_element_2"><rect width="512" height="512" x="0" y="0"/></clipPath><clipPath id="__lottie_element_4"><path d="M0,0 L512,0 L512,512 L0,512z"/></clipPath></defs><g clip-path="url(#__lottie_element_2)"><g clip-path="url(#__lottie_element_4)" transform="matrix(1,0,0,1,0,0)" opacity="1" style="display: block;"><g transform="matrix(1,0,0,1,289.57000732421875,256.0009765625)" opacity="1" style="display: block;"><path stroke-linecap="butt" stroke-linejoin="miter" fill-opacity="0" stroke-miterlimit="4" stroke="rgb(250,144,22)" stroke-opacity="1" stroke-width="20" d=" M-172.5,126 C-178.5,131.5 -184.22500610351562,151.94500732421875 -166,189.5 C-149.5,223.5 -132.5,175.5 -140,155.5 C-147.5,135.5 -166.5,120.5 -172.5,126z"/><g opacity="1" transform="matrix(1,0,0,1,0,0)"><path fill="rgb(250,144,22)" fill-opacity="1" d=" M-172.5,126 C-178.5,131.5 -184.22500610351562,151.94500732421875 -166,189.5 C-149.5,223.5 -132.5,175.5 -140,155.5 C-147.5,135.5 -166.5,120.5 -172.5,126z"/><path stroke-linecap="butt" stroke-linejoin="miter" fill-opacity="0" stroke-miterlimit="4" stroke="rgb(250,144,22)" stroke-opacity="1" stroke-width="20" d=" M-172.5,126 C-178.5,131.5 -184.22500610351562,151.94500732421875 -166,189.5 C-149.5,223.5 -132.5,175.5 -140,155.5 C-147.5,135.5 -166.5,120.5 -172.5,126z"/></g></g><g transform="matrix(1,0,0,1,243.09799194335938,403.29498291015625)" opacity="1" style="display: block;"><g opacity="1" transform="matrix(1,0,0,1,0,0)"><path fill="rgb(250,144,22)" fill-opacity="1" d=" M-0.1420000046491623,91.96800231933594 C-68.81099700927734,91.96800231933594 -152.94500732421875,85.06900024414062 -149.4530029296875,17.547000885009766 C-137.10800170898438,-70.79399871826172 -62.12099838256836,-91.96800231933594 -3.7009999752044678,-91.96800231933594 C74.54900360107422,-91.96800231933594 160.15699768066406,-36.297000885009766 159.35899353027344,16.701000213623047 C165.65699768066406,85.26100158691406 68.8759994506836,91.96800231933594 -0.1420000046491623,91.96800231933594z"/><path stroke-linecap="butt" stroke-linejoin="miter" fill-opacity="0" stroke-miterlimit="10" stroke="rgb(250,144,22)" stroke-opacity="1" stroke-width="20" d=" M-0.1420000046491623,91.96800231933594 C-68.81099700927734,91.96800231933594 -152.94500732421875,85.06900024414062 -149.4530029296875,17.547000885009766 C-137.10800170898438,-70.79399871826172 -62.12099838256836,-91.96800231933594 -3.7009999752044678,-91.96800231933594 C74.54900360107422,-91.96800231933594 160.15699768066406,-36.297000885009766 159.35899353027344,16.701000213623047 C165.65699768066406,85.26100158691406 68.8759994506836,91.96800231933594 -0.1420000046491623,91.96800231933594z"/></g></g><g transform="matrix(0.8999999761581421,0,0,1,244.19400024414062,192.583984375)" opacity="1" style="display: block;"><path stroke-linecap="round" stroke-linejoin="round" fill-opacity="0" stroke="rgb(0,88,144)" stroke-opacity="1" stroke-width="20" d=" M-248.63900756835938,33.16299819946289 C-218.23899841308594,16.92099952697754 -156.7830047607422,28.618000030517578 -131.8979949951172,53.6150016784668 C-93.48600006103516,35.50400161743164 -25.823999404907227,40.54399871826172 10,65.7750015258789 C46.242000579833984,40.24700164794922 113.91699981689453,35.709999084472656 151.8979949951172,53.6150016784668 C176.9340057373047,28.465999603271484 218.42599487304688,17.020000457763672 248.63900756835938,33.16299819946289 C240.37899780273438,-22.363000869750977 196.0229949951172,-42.479000091552734 143.7449951171875,-53.48400115966797 C92.49700164794922,-63.689998626708984 32.3489990234375,-65.28099822998047 0,-65.7750015258789 C-32.277000427246094,-65.3270034790039 -92.41799926757812,-63.84299850463867 -143.67300415039062,-53.68600082397461 C-195.95599365234375,-42.72999954223633 -240.34300231933594,-22.604999542236328 -248.63900756835938,33.16299819946289z"/><g opacity="1" transform="matrix(1,0,0,1,0,0)"><path fill="rgb(0,50,82)" fill-opacity="1" d=" M-248.63900756835938,33.16299819946289 C-218.23899841308594,16.92099952697754 -156.7830047607422,28.618000030517578 -131.8979949951172,53.6150016784668 C-93.48600006103516,35.50400161743164 -25.823999404907227,40.54399871826172 10,65.7750015258789 C46.242000579833984,40.24700164794922 113.91699981689453,35.709999084472656 151.8979949951172,53.6150016784668 C176.9340057373047,28.465999603271484 218.42599487304688,17.020000457763672 248.63900756835938,33.16299819946289 C240.37899780273438,-22.363000869750977 196.0229949951172,-42.479000091552734 143.7449951171875,-53.48400115966797 C92.49700164794922,-63.689998626708984 32.3489990234375,-65.28099822998047 0,-65.7750015258789 C-32.277000427246094,-65.3270034790039 -92.41799926757812,-63.84299850463867 -143.67300415039062,-53.68600082397461 C-195.95599365234375,-42.72999954223633 -240.34300231933594,-22.604999542236328 -248.63900756835938,33.16299819946289z"/></g></g><g transform="matrix(1,0,0,1,243.09799194335938,403.29498291015625)" opacity="1" style="display: block;"><g opacity="1" transform="matrix(1,0,0,1,0,0)"><path fill="rgb(255,213,39)" fill-opacity="1" d=" M-0.1420000046491623,91.96800231933594 C-68.81099700927734,91.96800231933594 -152.94500732421875,85.06900024414062 -149.4530029296875,17.547000885009766 C-137.10800170898438,-70.79399871826172 -62.12099838256836,-91.96800231933594 -3.7009999752044678,-91.96800231933594 C74.54900360107422,-91.96800231933594 160.15699768066406,-36.297000885009766 159.35899353027344,16.701000213623047 C165.65699768066406,85.26100158691406 68.8759994506836,91.96800231933594 -0.1420000046491623,91.96800231933594z"/></g></g><g transform="matrix(1,0,0,1,239.8579864501953,402.9389953613281)" opacity="1" style="display: block;"><g opacity="1" transform="matrix(0.9776366353034973,-0.21030113101005554,0.21030113101005554,0.9776366353034973,0,0)"><path stroke-linecap="round" stroke-linejoin="round" fill-opacity="0" stroke="rgb(255,255,255)" stroke-opacity="1" stroke-width="10" d=" M127.78700256347656,-2.5510001182556152 C137.54600524902344,11.166999816894531 143.95799255371094,34.22700119018555 142.94400024414062,41.72100067138672"/></g></g><g transform="matrix(1,0,0,1,289.57000732421875,256.0009765625)" opacity="1" style="display: block;"><g opacity="1" transform="matrix(1,0,0,1,0,0)"><path fill="rgb(254,216,32)" fill-opacity="1" d=" M-172.5,126 C-178.5,131.5 -184.22500610351562,151.94500732421875 -166,189.5 C-149.5,223.5 -132.5,175.5 -140,155.5 C-147.5,135.5 -166.5,120.5 -172.5,126z"/></g></g><g transform="matrix(1,0,0,1,243.09799194335938,230.2869873046875)" opacity="1" style="display: block;"><g opacity="1" transform="matrix(1,0,0,1,0,0)"><path fill="rgb(255,213,39)" fill-opacity="1" d=" M-114.60199737548828,122.12200164794922 C-141.65899658203125,99.81400299072266 -157.3719940185547,68.63600158691406 -157.3719940185547,32.06100082397461 C-157.3719940185547,-45.637001037597656 -86.91500091552734,-122.12200164794922 0,-122.12200164794922 C86.91400146484375,-122.12200164794922 157.3719940185547,-45.637001037597656 157.3719940185547,32.06100082397461 C157.3719940185547,68.73500061035156 141.5800018310547,99.77400207519531 114.86100006103516,121.90699768066406"/><path stroke-linecap="round" stroke-linejoin="round" fill-opacity="0" stroke="rgb(250,144,22)" stroke-opacity="1" stroke-width="10" d=" M-114.60199737548828,122.12200164794922 C-141.65899658203125,99.81400299072266 -157.3719940185547,68.63600158691406 -157.3719940185547,32.06100082397461 C-157.3719940185547,-45.637001037597656 -86.91500091552734,-122.12200164794922 0,-122.12200164794922 C86.91400146484375,-122.12200164794922 157.3719940185547,-45.637001037597656 157.3719940185547,32.06100082397461 C157.3719940185547,68.73500061035156 141.5800018310547,99.77400207519531 114.86100006103516,121.90699768066406"/></g></g><g transform="matrix(1,0,0,1,129.0229949951172,412.6719970703125)" opacity="1" style="display: block;"><g opacity="1" transform="matrix(1,0,0,1,0,0)"><path stroke-linecap="round" stroke-linejoin="round" fill-opacity="0" stroke="rgb(252,238,33)" stroke-opacity="1" stroke-width="10" d=" M-3.4590001106262207,-40.57600021362305 C-13.345999717712402,-28.395000457763672 -26.704999923706055,-4.598999977111816 -21.597999572753906,24.724000930786133"/></g></g><g transform="matrix(1,0,0,1,128.052001953125,250.59197998046875)" opacity="1" style="display: block;"><g opacity="1" transform="matrix(1,0,0,1,0,0)"><path stroke-linecap="round" stroke-linejoin="round" fill-opacity="0" stroke="rgb(252,238,33)" stroke-opacity="1" stroke-width="10" d=" M-9.940999984741211,-39.75199890136719 C-18.0310001373291,-23.257999420166016 -22.540000915527344,-5.441999912261963 -22.540000915527344,12.447999954223633 C-22.540000915527344,38.80400085449219 -12.755999565124512,61.380001068115234 3.8519999980926514,79.05000305175781"/></g></g><g transform="matrix(1,0,0,1,245.09799194335938,255.00099182128906)" opacity="1" style="display: block;"><g opacity="1" transform="matrix(1,0,0,1,0,0)"><path stroke-linecap="round" stroke-linejoin="round" fill-opacity="0" stroke="rgb(255,255,255)" stroke-opacity="1" stroke-width="10" d=" M133.7949981689453,9.414999961853027 C133.73899841308594,16.643999099731445 132.9459991455078,23.58799934387207 131.4759979248047,30.219999313354492 M132.1179962158203,-20.083999633789062 C125.38400268554688,-47.31399917602539 111.2239990234375,-71.73300170898438 89.35700225830078,-90.84300231933594 C79.43800354003906,-99.51200103759766 68.24700164794922,-106.9280014038086 56.00299835205078,-112.65499877929688"/></g></g><g transform="matrix(-1,0,0,1,295.09100341796875,396.5989685058594)" opacity="1" style="display: block;"><g opacity="1" transform="matrix(1,0,0,1,0,0)"><path fill="rgb(255,213,39)" fill-opacity="1" d=" M-53.784000396728516,0.6010000109672546 C-35.0260009765625,-20.89299964904785 9.526000022888184,-38.86899948120117 36.49100112915039,-39.6510009765625 C63.45600128173828,-40.43299865722656 54.04600143432617,-25.44700050354004 40.790000915527344,-15.031000137329102 C29.847999572753906,-6.433000087738037 4.836999893188477,15.842000007629395 -17.43899917602539,39.680999755859375"/><path stroke-linecap="round" stroke-linejoin="round" fill-opacity="0" stroke="rgb(250,144,22)" stroke-opacity="1" stroke-width="10" d=" M-53.784000396728516,0.6010000109672546 C-35.0260009765625,-20.89299964904785 9.526000022888184,-38.86899948120117 36.49100112915039,-39.6510009765625 C63.45600128173828,-40.43299865722656 54.04600143432617,-25.44700050354004 40.790000915527344,-15.031000137329102 C29.847999572753906,-6.433000087738037 4.836999893188477,15.842000007629395 -17.43899917602539,39.680999755859375"/></g></g><g transform="matrix(1,0,0,1,212.77198791503906,274.1239929199219)" opacity="1" style="display: block;"><g opacity="1" transform="matrix(1,0,0,1,0,0)"><path fill="rgb(255,93,31)" fill-opacity="1" d=" M-65.37200164794922,36.09000015258789 C-30.267000198364258,47.62699890136719 35.70199966430664,41 57.36899948120117,27.832000732421875 C74.98300170898438,17.12700080871582 67.14099884033203,-0.28600001335144043 50.97999954223633,1.965999960899353 C4.982999801635742,8.376999855041504 18.30500030517578,-42.729000091552734 -4.553999900817871,-41.387001037597656 C-27.39699935913086,-40.04499816894531 -27.488000869750977,-0.6480000019073486 -65.37000274658203,3.686000108718872 C-74.48300170898438,4.729000091552734 -78.93099975585938,14.126999855041504 -71.40699768066406,20.89900016784668 C-79.18099975585938,23.87700080871582 -78.02799987792969,31.930999755859375 -65.37200164794922,36.09000015258789z"/><path stroke-linecap="butt" stroke-linejoin="miter" fill-opacity="0" stroke-miterlimit="10" stroke="rgb(207,53,2)" stroke-opacity="1" stroke-width="8" d=" M-65.37200164794922,36.09000015258789 C-30.267000198364258,47.62699890136719 35.70199966430664,41 57.36899948120117,27.832000732421875 C74.98300170898438,17.12700080871582 67.14099884033203,-0.28600001335144043 50.97999954223633,1.965999960899353 C4.982999801635742,8.376999855041504 18.30500030517578,-42.729000091552734 -4.553999900817871,-41.387001037597656 C-27.39699935913086,-40.04499816894531 -27.488000869750977,-0.6480000019073486 -65.37000274658203,3.686000108718872 C-74.48300170898438,4.729000091552734 -78.93099975585938,14.126999855041504 -71.40699768066406,20.89900016784668 C-79.18099975585938,23.87700080871582 -78.02799987792969,31.930999755859375 -65.37200164794922,36.09000015258789z"/></g></g><g transform="matrix(1.0634181499481201,0.22398103773593903,-0.22398103773593903,1.0634181499481201,239.1017303466797,262.7496032714844)" opacity="1" style="display: block;"><g opacity="1" transform="matrix(1,0,0,1,24.70599937438965,22.10700035095215)"><path stroke-linecap="round" stroke-linejoin="round" fill-opacity="0" stroke="rgb(255,180,132)" stroke-opacity="1" stroke-width="8" d=" M-30.55500030517578,-4.7769999504089355 C-41.61000061035156,-8.484000205993652 -46.98400115966797,-15.991999626159668 -52.7859992980957,-29.280000686645508"/></g></g><g transform="matrix(0.8631628751754761,0.20008628070354462,-0.245249941945076,1.0579967498779297,-5.97137451171875,328.0810546875)" opacity="1" style="display: block;"><path stroke-linecap="butt" stroke-linejoin="miter" fill-opacity="0" stroke-miterlimit="4" stroke="rgb(0,0,0)" stroke-opacity="1" stroke-width="5" d=" M143.83200073242188,-123.40399932861328 C154.06900024414062,-125.31999969482422 162.17100524902344,-119.08899688720703 165.33599853515625,-116.06400299072266 C167.35000610351562,-114.13899993896484 167.3990020751953,-112.41600036621094 166.50999450683594,-110.90699768066406 C165.6020050048828,-109.36599731445312 163.43299865722656,-108.83000183105469 161.7729949951172,-110.03299713134766 C158.39700317382812,-112.47899627685547 152.62399291992188,-117.572998046875 144.1719970703125,-116.0530014038086 C135.2530059814453,-114.4489974975586 133.77000427246094,-109.13200378417969 129.79200744628906,-104.19999694824219 C128.43499755859375,-102.51799774169922 126.14900207519531,-102.1989974975586 124.62100219726562,-103.91500091552734 C123.02400207519531,-105.70899963378906 123.60299682617188,-107.63400268554688 125.18499755859375,-110.16899871826172 C128.61000061035156,-115.65799713134766 133.3280029296875,-121.43800354003906 143.83200073242188,-123.40399932861328z"/><g opacity="1" transform="matrix(1,0,0,1,0,0)"><path fill="rgb(0,0,0)" fill-opacity="1" d=" M143.83200073242188,-123.40399932861328 C154.06900024414062,-125.31999969482422 162.17100524902344,-119.08899688720703 165.33599853515625,-116.06400299072266 C167.35000610351562,-114.13899993896484 167.3990020751953,-112.41600036621094 166.50999450683594,-110.90699768066406 C165.6020050048828,-109.36599731445312 163.43299865722656,-108.83000183105469 161.7729949951172,-110.03299713134766 C158.39700317382812,-112.47899627685547 152.62399291992188,-117.572998046875 144.1719970703125,-116.0530014038086 C135.2530059814453,-114.4489974975586 133.77000427246094,-109.13200378417969 129.79200744628906,-104.19999694824219 C128.43499755859375,-102.51799774169922 126.14900207519531,-102.1989974975586 124.62100219726562,-103.91500091552734 C123.02400207519531,-105.70899963378906 123.60299682617188,-107.63400268554688 125.18499755859375,-110.16899871826172 C128.61000061035156,-115.65799713134766 133.3280029296875,-121.43800354003906 143.83200073242188,-123.40399932861328z"/></g></g><g transform="matrix(0.6905303001403809,0.1600690335035324,-0.1961999535560608,0.8463973999023438,154.52964782714844,226.36952209472656)" opacity="1" style="display: block;"><g opacity="1" transform="matrix(1,0,0,1,0,0)"><path fill="rgb(0,0,0)" fill-opacity="1" d=" M-9.729999542236328,8.197999954223633 C-7.571000099182129,11.055999755859375 -2.953000068664551,12.37399959564209 0.5849999785423279,11.142000198364258 C4.123000144958496,9.90999984741211 5.242000102996826,6.593999862670898 3.0829999446868896,3.7360000610351562 C0.9240000247955322,0.878000020980835 -3.694999933242798,-0.4399999976158142 -7.232999801635742,0.7919999957084656 C-10.770999908447266,2.0239999294281006 -11.888999938964844,5.340000152587891 -9.729999542236328,8.197999954223633z"/></g></g><g transform="matrix(1.0717133283615112,-0.175883948802948,0.175883948802948,1.0717133283615112,141.28305053710938,384.164306640625)" opacity="1" style="display: block;"><path stroke-linecap="butt" stroke-linejoin="miter" fill-opacity="0" stroke-miterlimit="4" stroke="rgb(0,0,0)" stroke-opacity="1" stroke-width="5" d=" M148.04800415039062,-122.99800109863281 C158.26300048828125,-120.96700286865234 163.4340057373047,-113.1760025024414 165.17999267578125,-108.1510009765625 C166.09500122070312,-105.51899719238281 165.73599243164062,-103.99700164794922 164.35000610351562,-102.9280014038086 C162.9340057373047,-101.83599853515625 160.67100524902344,-102.11499786376953 159.62899780273438,-103.87999725341797 C157.03199768066406,-108.27799987792969 154.03700256347656,-114.31300354003906 145.6269989013672,-116.0479965209961 C136.7519989013672,-117.87899780273438 133.58999633789062,-114.69100189208984 127.77300262451172,-110.36699676513672 C126.03900146484375,-109.0780029296875 123.64700317382812,-109.86599731445312 122.86699676513672,-112.02799987792969 C122.052001953125,-114.28800201416016 123.37699890136719,-115.76599884033203 125.71900177001953,-117.62200164794922 C131.5659942626953,-122.25499725341797 137.56700134277344,-125.08200073242188 148.04800415039062,-122.99800109863281z"/><g opacity="1" transform="matrix(1,0,0,1,0,0)"><path fill="rgb(0,0,0)" fill-opacity="1" d=" M148.04800415039062,-122.99800109863281 C158.26300048828125,-120.96700286865234 163.4340057373047,-113.1760025024414 165.17999267578125,-108.1510009765625 C166.09500122070312,-105.51899719238281 165.73599243164062,-103.99700164794922 164.35000610351562,-102.9280014038086 C162.9340057373047,-101.83599853515625 160.67100524902344,-102.11499786376953 159.62899780273438,-103.87999725341797 C157.03199768066406,-108.27799987792969 154.03700256347656,-114.31300354003906 145.6269989013672,-116.0479965209961 C136.7519989013672,-117.87899780273438 133.58999633789062,-114.69100189208984 127.77300262451172,-110.36699676513672 C126.03900146484375,-109.0780029296875 123.64700317382812,-109.86599731445312 122.86699676513672,-112.02799987792969 C122.052001953125,-114.28800201416016 123.37699890136719,-115.76599884033203 125.71900177001953,-117.62200164794922 C131.5659942626953,-122.25499725341797 137.56700134277344,-125.08200073242188 148.04800415039062,-122.99800109863281z"/></g></g><g transform="matrix(0.8573706746101379,-0.14070716500282288,0.14070716500282288,0.8573706746101379,280.7036437988281,224.14462280273438)" opacity="1" style="display: block;"><g opacity="1" transform="matrix(1,0,0,1,0,0)"><path fill="rgb(0,0,0)" fill-opacity="1" d=" M-9.045999526977539,8.649999618530273 C-6.88700008392334,11.508000373840332 -2.2690000534057617,12.824999809265137 1.2690000534057617,11.593000411987305 C4.807000160217285,10.361000061035156 5.926000118255615,7.046000003814697 3.7669999599456787,4.188000202178955 C1.6080000400543213,1.3300000429153442 -3.010999917984009,0.012000000104308128 -6.548999786376953,1.24399995803833 C-10.086999893188477,2.4760000705718994 -11.204999923706055,5.791999816894531 -9.045999526977539,8.649999618530273z"/></g></g><g transform="matrix(1,0,0,1,210.79598999023438,293.87298583984375)" opacity="1" style="display: block;"><g opacity="1" transform="matrix(1,0,0,1,0,0)"><path stroke-linecap="round" stroke-linejoin="round" fill-opacity="0" stroke="rgb(125,9,9)" stroke-opacity="1" stroke-width="7.2" d=" M47.21799850463867,-3.6519999504089355 C35.459999084472656,7.376999855041504 -41.04100036621094,5.877999782562256 -61.71799850463867,1.815000057220459"/></g></g><g transform="matrix(1,0,0,1,274.8119812011719,211.64898681640625)" opacity="1" style="display: block;"><g opacity="1" transform="matrix(1,0,0,1,0,0)"><path fill="rgb(0,1,3)" fill-opacity="1" d=" M58.79800033569336,136.17999267578125 C62.60300064086914,144.08900451660156 60.74100112915039,157.0070037841797 58.70399856567383,165.24600219726562 C54.30400085449219,182.1580047607422 42.91999816894531,198.93800354003906 22.285999298095703,205.197998046875 C12.10099983215332,208.3459930419922 0.765999972820282,208.1510009765625 -8.935999870300293,204.79400634765625 C-18.95400047302246,201.42599487304688 -28.82900047302246,194.37399291992188 -35.632999420166016,182.27200317382812 C-46.28200149536133,163.33099365234375 -42.90999984741211,141.23199462890625 -43.31700134277344,132.8159942626953 C-41.89799880981445,13.689000129699707 -39.375999450683594,-2.046999931335449 -39.0369987487793,-81.40299987792969 C-39.03499984741211,-87.52899932861328 -38.78900146484375,-127.12100219726562 -38.58300018310547,-142.60800170898438 C-38.58300018310547,-142.60800170898438 -38.229000091552734,-173.21099853515625 -38.229000091552734,-173.21099853515625 C-38.12300109863281,-182.95799255371094 -37.44499969482422,-194.37399291992188 -35.21900177001953,-203.81300354003906 C-34.082000732421875,-208.6320037841797 -27.17300033569336,-208.66600036621094 -26.01799964904785,-203.81300354003906 C-23.791000366210938,-194.3719940185547 -23.11400032043457,-182.95399475097656 -23.007999420166016,-173.21099853515625 C-23.007999420166016,-173.21099853515625 -22.65399932861328,-142.60800170898438 -22.65399932861328,-142.60800170898438 C-22.445999145507812,-127.00599670410156 -22.20199966430664,-87.43599700927734 -22.200000762939453,-81.40299987792969 C-21.825000762939453,7.355000019073486 -20.402999877929688,14.230999946594238 -18.989999771118164,132.8159942626953 C-18.3439998626709,140.75900268554688 -21.051000595092773,159.0679931640625 -11.140000343322754,173.56199645996094 C-5.239999771118164,182.19000244140625 4.309999942779541,187.875 13.548999786376953,180.61500549316406 C19.69099998474121,175.78799438476562 22.8439998626709,167.18099975585938 24.21500015258789,160.51199340820312 C26.743000030517578,147.82899475097656 23.548999786376953,139.83799743652344 30.231000900268555,132.35499572753906 C36.90399932861328,124.88099670410156 53.053001403808594,124.61399841308594 58.79800033569336,136.17999267578125z"/></g></g><g transform="matrix(0.8999999761581421,0,0,1,244.19400024414062,128.958984375)" opacity="1" style="display: block;"><path stroke-linecap="round" stroke-linejoin="round" fill-opacity="0" stroke="rgb(0,88,143)" stroke-opacity="1" stroke-width="20" d=" M-248.63900756835938,96.78800201416016 C-232.60400390625,76.7760009765625 -189.84800720214844,42.400001525878906 -162.77499389648438,56.72800064086914 C-118.93399810791016,21.746000289916992 -55.56100082397461,19.597000122070312 -20,42.047000885009766 C15.663000106811523,19.531999588012695 79.03700256347656,21.82900047302246 122.77400207519531,56.72800064086914 C129.61000061035156,53.11000061035156 198.36300659179688,34.05699920654297 248.63900756835938,96.78800201416016 C232.38800048828125,-15.51200008392334 96.58200073242188,-87.20899963378906 0,-84.72899627685547 C-96.44999694824219,-87.33399963378906 -232.3419952392578,-15.843000411987305 -248.63900756835938,96.78800201416016z"/><path fill="rgb(0,155,255)" fill-opacity="1" d=" M-248.63900756835938,96.78800201416016 C-232.60400390625,76.7760009765625 -189.84800720214844,42.400001525878906 -162.77499389648438,56.72800064086914 C-118.93399810791016,21.746000289916992 -55.56100082397461,19.597000122070312 -20,42.047000885009766 C15.663000106811523,19.531999588012695 79.03700256347656,21.82900047302246 122.77400207519531,56.72800064086914 C129.61000061035156,53.11000061035156 198.36300659179688,34.05699920654297 248.63900756835938,96.78800201416016 C232.38800048828125,-15.51200008392334 96.58200073242188,-87.20899963378906 0,-84.72899627685547 C-96.44999694824219,-87.33399963378906 -232.3419952392578,-15.843000411987305 -248.63900756835938,96.78800201416016z"/><g opacity="1" transform="matrix(1,0,0,1,0,0)"/></g><g transform="matrix(0.8999999761581421,0,0,1,239.6075897216797,245.99996948242188)" opacity="0.4" style="display: block;"><g opacity="1" transform="matrix(1,0,0,1,0,0)"><path stroke-linecap="round" stroke-linejoin="round" fill-opacity="0" stroke="rgb(0,88,144)" stroke-opacity="1" stroke-width="10" d=" M-157.71099853515625,-57.14099884033203 C-145.76800537109375,-144.28199768066406 -65.19499969482422,-195.2760009765625 -14.619999885559082,-206.54100036621094 M127.33699798583984,-58.44599914550781 C119.65799713134766,-133.96499633789062 73.56900024414062,-188.9429931640625 33.42300033569336,-205.39199829101562 M2.299999952316284,-207.66400146484375 C-3.7139999866485596,-195.22500610351562 -11.10099983215332,-140.61099243164062 -14.637999534606934,-71.85700225830078"/></g></g><g transform="matrix(-0.0652356967329979,0.8289971947669983,-0.8977000117301941,-0.0872124657034874,199.54263305664062,651.687744140625)" opacity="1" style="display: block;"><g opacity="1" transform="matrix(1,0,0,1,35.6879997253418,48.13999938964844)"><path stroke-linecap="round" stroke-linejoin="round" fill-opacity="0" stroke-dasharray=" 60 20" stroke-dashoffset="0" stroke="rgb(86,190,255)" stroke-opacity="1" stroke-width="10" d=" M-742.541015625,-135.93899536132812 C-731.0089721679688,-165.8520050048828 -711.927978515625,-195.5850067138672 -688.8679809570312,-217.65199279785156"/></g></g><g transform="matrix(1,0,0,1,226.0909881591797,379.5989990234375)" opacity="1" style="display: block;"><g opacity="1" transform="matrix(1,0,0,1,0,0)"><path fill="rgb(255,213,39)" fill-opacity="1" d=" M-53.784000396728516,0.6010000109672546 C-35.0260009765625,-20.89299964904785 9.526000022888184,-38.86899948120117 36.49100112915039,-39.6510009765625 C63.45600128173828,-40.43299865722656 54.04600143432617,-25.44700050354004 40.790000915527344,-15.031000137329102 C29.847999572753906,-6.433000087738037 4.836999893188477,15.842000007629395 -17.43899917602539,39.680999755859375"/><path stroke-linecap="round" stroke-linejoin="round" fill-opacity="0" stroke="rgb(250,144,22)" stroke-opacity="1" stroke-width="10" d=" M-53.784000396728516,0.6010000109672546 C-35.0260009765625,-20.89299964904785 9.526000022888184,-38.86899948120117 36.49100112915039,-39.6510009765625 C63.45600128173828,-40.43299865722656 54.04600143432617,-25.44700050354004 40.790000915527344,-15.031000137329102 C29.847999572753906,-6.433000087738037 4.836999893188477,15.842000007629395 -17.43899917602539,39.680999755859375"/></g></g><g transform="matrix(-0.07368005067110062,0.842674970626831,-0.8767350316047668,-0.07665812224149704,203.8685302734375,662.3814697265625)" opacity="1" style="display: block;"><g opacity="1" transform="matrix(1,0,0,1,35.6879997253418,48.13999938964844)"><path stroke-linecap="round" stroke-linejoin="round" fill-opacity="0" stroke="rgb(255,255,255)" stroke-opacity="1" stroke-width="10" d=" M-360.6990051269531,-3.815999984741211 C-373.2829895019531,-18.652999877929688 -395.5010070800781,-41.62200164794922 -403.27899169921875,-72.58499908447266"/></g></g><g transform="matrix(-0.10058139264583588,0.8179894089698792,-0.8971928358078003,-0.11032038182020187,186.52545166015625,644.0422973632812)" opacity="1" style="display: block;"><g opacity="1" transform="matrix(1,0,0,1,35.6879997253418,48.13999938964844)"><path stroke-linecap="round" stroke-linejoin="round" fill-opacity="0" stroke="rgb(5,86,84)" stroke-opacity="1" stroke-width="10" d=" M-335.9460144042969,-116.7300033569336 C-336.51300048828125,-148.4720001220703 -373.04901123046875,-152.5229949951172 -400.322998046875,-150.3780059814453"/></g></g><g transform="matrix(0.8979094624519348,-0.25603988766670227,0.25603988766670227,0.8979094624519348,-139.16082763671875,-277.7614440917969)" opacity="1" style="display: block;"><g opacity="1" transform="matrix(1,0,0,1,109.82099914550781,395.2040100097656)"><path stroke-linecap="round" stroke-linejoin="round" fill-opacity="0" stroke="rgb(0,0,0)" stroke-opacity="1" stroke-width="5" d=" M-8.991999626159668,-6.059000015258789 C-13.230999946594238,-3.4579999446868896 -9.376999855041504,6.874000072479248 1.8940000534057617,6.006999969482422"/></g><g opacity="1" transform="matrix(1,0,0,1,105.25700378417969,404.97601318359375)"><path stroke-linecap="round" stroke-linejoin="round" fill-opacity="0" stroke="rgb(0,0,0)" stroke-opacity="1" stroke-width="5" d=" M-18.381999969482422,-3.0929999351501465 C-18.106000900268555,2.184999942779541 -0.9810000061988831,7.2230000495910645 6.564000129699707,-2.125999927520752"/></g><g opacity="1" transform="matrix(1,0,0,1,106.87200164794922,415.07598876953125)"><path stroke-linecap="round" stroke-linejoin="round" fill-opacity="0" stroke="rgb(0,0,0)" stroke-opacity="1" stroke-width="5" d=" M-14.661999702453613,2.2769999504089355 C-12.843000411987305,6.873000144958496 1.253000020980835,5.8520002365112305 3.9200000762939453,-4.866000175476074"/></g></g><g transform="matrix(0.8979094624519348,-0.25603988766670227,0.25603988766670227,0.8979094624519348,-139.16082763671875,-277.7614440917969)" opacity="1" style="display: block;"><g opacity="1" transform="matrix(1,0,0,1,139.54600524902344,397.4169921875)"><path stroke-linecap="round" stroke-linejoin="round" fill-opacity="0" stroke="rgb(0,0,0)" stroke-opacity="1" stroke-width="5" d=" M11.430000305175781,-5.144999980926514 C14.715999603271484,-1.8550000190734863 7.6479997634887695,7.478000164031982 -3.0329999923706055,4.6020002365112305"/></g><g opacity="1" transform="matrix(1,0,0,1,142.55299377441406,407.39898681640625)"><path stroke-linecap="round" stroke-linejoin="round" fill-opacity="0" stroke="rgb(0,0,0)" stroke-opacity="1" stroke-width="5" d=" M17.898000717163086,-0.24500000476837158 C15.932999610900879,4.828000068664551 -2.3380000591278076,6.627999782562256 -6.670000076293945,-3.808000087738037"/></g><g opacity="1" transform="matrix(1,0,0,1,138.22500610351562,416.9010009765625)"><path stroke-linecap="round" stroke-linejoin="round" fill-opacity="0" stroke="rgb(0,0,0)" stroke-opacity="1" stroke-width="5" d=" M12.067000389099121,4.304999828338623 C8.821000099182129,8.437999725341797 -4.557000160217285,4.9019999504089355 -3.7060000896453857,-5.98199987411499"/></g></g><g transform="matrix(0.8979094624519348,-0.25603988766670227,0.25603988766670227,0.8979094624519348,76.57884979248047,54.54064178466797)" opacity="1" style="display: block;"><g opacity="1" transform="matrix(1,0,0,1,0,0)"><path fill="rgb(228,35,32)" fill-opacity="1" d=" M19.493000030517578,0 C19.493000030517578,10.765999794006348 10.765999794006348,19.493000030517578 0,19.493000030517578 C-10.765999794006348,19.493000030517578 -19.493000030517578,10.765999794006348 -19.493000030517578,0 C-19.493000030517578,-10.765999794006348 -10.765999794006348,-19.493000030517578 0,-19.493000030517578 C10.765999794006348,-19.493000030517578 19.493000030517578,-10.765999794006348 19.493000030517578,0z"/><path stroke-linecap="round" stroke-linejoin="round" fill-opacity="0" stroke="rgb(0,0,0)" stroke-opacity="1" stroke-width="6" d=" M19.493000030517578,0 C19.493000030517578,10.765999794006348 10.765999794006348,19.493000030517578 0,19.493000030517578 C-10.765999794006348,19.493000030517578 -19.493000030517578,10.765999794006348 -19.493000030517578,0 C-19.493000030517578,-10.765999794006348 -10.765999794006348,-19.493000030517578 0,-19.493000030517578 C10.765999794006348,-19.493000030517578 19.493000030517578,-10.765999794006348 19.493000030517578,0z"/></g></g><g transform="matrix(0.7414684891700745,0.09041619300842285,-0.09041619300842285,0.7414684891700745,85.99456024169922,51.812286376953125)" opacity="1" style="display: block;"><g opacity="1" transform="matrix(1,0,0,1,0,0)"><path fill="rgb(228,35,32)" fill-opacity="1" d=" M-5.239999771118164,3.743000030517578 C-2.694999933242798,0 2.2820000648498535,-3.50600004196167 5.239999771118164,-3.743000030517578"/><path stroke-linecap="round" stroke-linejoin="round" fill-opacity="0" stroke="rgb(0,0,0)" stroke-opacity="1" stroke-width="5" d=" M-5.239999771118164,3.743000030517578 C-2.694999933242798,0 2.2820000648498535,-3.50600004196167 5.239999771118164,-3.743000030517578"/></g></g><g transform="matrix(0.7414684891700745,0.09041619300842285,-0.09041619300842285,0.7414684891700745,76.09306335449219,60.87266159057617)" opacity="1" style="display: block;"><g opacity="1" transform="matrix(1,0,0,1,0,0)"><path fill="rgb(228,35,32)" fill-opacity="1" d=" M-6.913000106811523,-1.2480000257492065 C-3.1419999599456787,1.4229999780654907 1.5709999799728394,2.680000066757202 6.913000106811523,-1.2480000257492065"/><path stroke-linecap="round" stroke-linejoin="round" fill-opacity="0" stroke="rgb(0,0,0)" stroke-opacity="1" stroke-width="5" d=" M-6.913000106811523,-1.2480000257492065 C-3.1419999599456787,1.4229999780654907 1.5709999799728394,2.680000066757202 6.913000106811523,-1.2480000257492065"/></g></g><g transform="matrix(0.7414684891700745,0.09041619300842285,-0.09041619300842285,0.7414684891700745,68.81198120117188,51.14072799682617)" opacity="1" style="display: block;"><g opacity="1" transform="matrix(1,0,0,1,0,0)"><path fill="rgb(0,0,0)" fill-opacity="1" d=" M3.9719998836517334,0 C3.9719998836517334,2.757999897003174 2.193000078201294,4.993000030517578 0,4.993000030517578 C-2.193000078201294,4.993000030517578 -3.9719998836517334,2.757999897003174 -3.9719998836517334,0 C-3.9719998836517334,-2.757999897003174 -2.193000078201294,-4.993000030517578 0,-4.993000030517578 C2.193000078201294,-4.993000030517578 3.9719998836517334,-2.757999897003174 3.9719998836517334,0z"/></g></g><g transform="matrix(0.7414684891700745,0.09041619300842285,-0.09041619300842285,0.7414684891700745,86.08304595947266,54.060997009277344)" opacity="1" style="display: block;"><g opacity="1" transform="matrix(1,0,0,1,0,0)"><path fill="rgb(0,0,0)" fill-opacity="1" d=" M3.9719998836517334,0 C3.9719998836517334,2.757999897003174 2.193000078201294,4.993000030517578 0,4.993000030517578 C-2.193000078201294,4.993000030517578 -3.9719998836517334,2.757999897003174 -3.9719998836517334,0 C-3.9719998836517334,-2.757999897003174 -2.193000078201294,-4.993000030517578 0,-4.993000030517578 C2.193000078201294,-4.993000030517578 3.9719998836517334,-2.757999897003174 3.9719998836517334,0z"/></g></g><g transform="matrix(0.7414684891700745,0.09041619300842285,-0.09041619300842285,0.7414684891700745,69.10637664794922,48.726505279541016)" opacity="1" style="display: block;"><g opacity="1" transform="matrix(1,0,0,1,0,0)"><path fill="rgb(228,35,32)" fill-opacity="1" d=" M-4.728000164031982,-3.940000057220459 C0.5260000228881836,-3.063999891281128 4.728000164031982,3.940000057220459 4.728000164031982,3.940000057220459"/><path stroke-linecap="round" stroke-linejoin="round" fill-opacity="0" stroke="rgb(0,0,0)" stroke-opacity="1" stroke-width="5" d=" M-4.728000164031982,-3.940000057220459 C0.5260000228881836,-3.063999891281128 4.728000164031982,3.940000057220459 4.728000164031982,3.940000057220459"/></g></g><g transform="matrix(0.23814566433429718,-0.39920786023139954,0.39920786023139954,0.23814566433429718,20.266357421875,149.08692932128906)" opacity="1" style="display: none;"><g opacity="1" transform="matrix(1,0,0,1,0,0)"><path fill="rgb(0,0,0)" fill-opacity="1" d=" M-7.39300012588501,3.8559999465942383 C-10.366000175476074,-0.5109999775886536 -9.902000427246094,-8.779999732971191 -4.140999794006348,-9.895000457763672 C-6.835999965667725,-7.664999961853027 -8.321999549865723,1.9049999713897705 -3.0260000228881836,3.9489998817443848 C2.2699999809265137,5.993000030517578 7.936999797821045,-3.3919999599456787 5.057000160217285,-8.315999984741211 C10.352999687194824,-1.9049999713897705 10.817999839782715,6.921999931335449 4.964000225067139,9.895000457763672"/><path stroke-linecap="round" stroke-linejoin="round" fill-opacity="0" stroke="rgb(0,0,0)" stroke-opacity="1" stroke-width="6" d=" M-7.39300012588501,3.8559999465942383 C-10.366000175476074,-0.5109999775886536 -9.902000427246094,-8.779999732971191 -4.140999794006348,-9.895000457763672 C-6.835999965667725,-7.664999961853027 -8.321999549865723,1.9049999713897705 -3.0260000228881836,3.9489998817443848 C2.2699999809265137,5.993000030517578 7.936999797821045,-3.3919999599456787 5.057000160217285,-8.315999984741211 C10.352999687194824,-1.9049999713897705 10.817999839782715,6.921999931335449 4.964000225067139,9.895000457763672"/></g></g><g transform="matrix(0.23814566433429718,-0.39920786023139954,0.39920786023139954,0.23814566433429718,-165.8267822265625,107.2371826171875)" opacity="1" style="display: none;"><g opacity="1" transform="matrix(1,0,0,1,109.82099914550781,395.2040100097656)"><path stroke-linecap="round" stroke-linejoin="round" fill-opacity="0" stroke="rgb(0,0,0)" stroke-opacity="1" stroke-width="6" d=" M-3.453000068664551,-6.059000015258789 C-6.631999969482422,-3.4579999446868896 -3.743000030517578,6.874000072479248 4.710999965667725,6.006999969482422"/></g><g opacity="1" transform="matrix(1,0,0,1,105.25700378417969,404.97601318359375)"><path stroke-linecap="round" stroke-linejoin="round" fill-opacity="0" stroke="rgb(0,0,0)" stroke-opacity="1" stroke-width="6" d=" M-9.354999542236328,-3.0929999351501465 C-9.14799976348877,2.184999942779541 3.696000099182129,7.2230000495910645 9.354999542236328,-2.125999927520752"/></g><g opacity="1" transform="matrix(1,0,0,1,106.87200164794922,415.07598876953125)"><path stroke-linecap="round" stroke-linejoin="round" fill-opacity="0" stroke="rgb(0,0,0)" stroke-opacity="1" stroke-width="6" d=" M-6.9679999351501465,2.2769999504089355 C-5.604000091552734,6.873000144958496 4.9679999351501465,5.8520002365112305 6.9679999351501465,-4.866000175476074"/></g></g><g transform="matrix(0.23814566433429718,-0.39920786023139954,0.39920786023139954,0.23814566433429718,-165.8267822265625,107.2371826171875)" opacity="1" style="display: none;"><g opacity="1" transform="matrix(1,0,0,1,139.54600524902344,397.4169921875)"><path stroke-linecap="round" stroke-linejoin="round" fill-opacity="0" stroke="rgb(0,0,0)" stroke-opacity="1" stroke-width="6" d=" M5.110000133514404,-5.144999980926514 C7.570000171661377,-1.8550000190734863 2.2790000438690186,7.478000164031982 -5.7179999351501465,4.6020002365112305"/></g><g opacity="1" transform="matrix(1,0,0,1,142.55299377441406,407.39898681640625)"><path stroke-linecap="round" stroke-linejoin="round" fill-opacity="0" stroke="rgb(0,0,0)" stroke-opacity="1" stroke-width="6" d=" M9.196999549865723,-0.24500000476837158 C7.72599983215332,4.828000068664551 -5.953999996185303,6.627999782562256 -9.196999549865723,-3.808000087738037"/></g><g opacity="1" transform="matrix(1,0,0,1,138.22500610351562,416.9010009765625)"><path stroke-linecap="round" stroke-linejoin="round" fill-opacity="0" stroke="rgb(0,0,0)" stroke-opacity="1" stroke-width="6" d=" M5.919000148773193,4.304999828338623 C3.489000082015991,8.437999725341797 -6.526000022888184,4.9019999504089355 -5.888999938964844,-5.98199987411499"/></g></g><g transform="matrix(0.23814566433429718,-0.39920786023139954,0.39920786023139954,0.23814566433429718,25.772933959960938,154.08877563476562)" opacity="1" style="display: none;"><g opacity="1" transform="matrix(1,0,0,1,0,0)"><path fill="rgb(228,35,32)" fill-opacity="1" d=" M17.851999282836914,1.8910000324249268 C17.851999282836914,11.864999771118164 9.765999794006348,19.95199966430664 -0.20800000429153442,19.95199966430664 C-10.182000160217285,19.95199966430664 -18.26799964904785,11.864999771118164 -18.26799964904785,1.8910000324249268 C-18.26799964904785,-8.083000183105469 -10.182000160217285,-16.16900062561035 -0.20800000429153442,-16.16900062561035 C9.765999794006348,-16.16900062561035 17.851999282836914,-8.083000183105469 17.851999282836914,1.8910000324249268z"/><path stroke-linecap="round" stroke-linejoin="round" fill-opacity="0" stroke="rgb(0,0,0)" stroke-opacity="1" stroke-width="6" d=" M17.851999282836914,1.8910000324249268 C17.851999282836914,11.864999771118164 9.765999794006348,19.95199966430664 -0.20800000429153442,19.95199966430664 C-10.182000160217285,19.95199966430664 -18.26799964904785,11.864999771118164 -18.26799964904785,1.8910000324249268 C-18.26799964904785,-8.083000183105469 -10.182000160217285,-16.16900062561035 -0.20800000429153442,-16.16900062561035 C9.765999794006348,-16.16900062561035 17.851999282836914,-8.083000183105469 17.851999282836914,1.8910000324249268z"/></g></g><g transform="matrix(-0.1740586906671524,0.5265517234802246,0.5265517234802246,0.1740586906671524,285.275634765625,117.84685516357422)" opacity="1" style="display: none;"><g opacity="1" transform="matrix(1,0,0,1,109.82099914550781,395.2040100097656)"><path stroke-linecap="round" stroke-linejoin="round" fill-opacity="0" stroke="rgb(0,0,0)" stroke-opacity="1" stroke-width="5" d=" M-11.696000099182129,-8.875 C-16.45199966430664,-6.051000118255615 -12.128999710083008,5.168000221252441 0.5180000066757202,4.2270002365112305"/></g><g opacity="1" transform="matrix(1,0,0,1,105.25700378417969,404.97601318359375)"><path stroke-linecap="round" stroke-linejoin="round" fill-opacity="0" stroke="rgb(0,0,0)" stroke-opacity="1" stroke-width="5" d=" M-22.788000106811523,-4.815999984741211 C-22.47800064086914,0.9150000214576721 -3.2639999389648438,6.385000228881836 5.202000141143799,-3.7660000324249268"/></g><g opacity="1" transform="matrix(1,0,0,1,106.87200164794922,415.07598876953125)"><path stroke-linecap="round" stroke-linejoin="round" fill-opacity="0" stroke="rgb(0,0,0)" stroke-opacity="1" stroke-width="5" d=" M-18.41699981689453,1.8819999694824219 C-16.375999450683594,6.873000144958496 -0.5600000023841858,5.763999938964844 2.431999921798706,-5.874000072479248"/></g></g><g transform="matrix(-0.1740586906671524,0.5265517234802246,0.5265517234802246,0.1740586906671524,285.275634765625,117.84685516357422)" opacity="1" style="display: none;"><g opacity="1" transform="matrix(1,0,0,1,139.54600524902344,397.4169921875)"><path stroke-linecap="round" stroke-linejoin="round" fill-opacity="0" stroke="rgb(0,0,0)" stroke-opacity="1" stroke-width="5" d=" M8.743000030517578,-11.314000129699707 C13.16100025177002,-9.281000137329102 8.6899995803833,1.9639999866485596 -3.2739999294281006,2.796999931335449"/></g><g opacity="1" transform="matrix(1,0,0,1,142.55299377441406,407.39898681640625)"><path stroke-linecap="round" stroke-linejoin="round" fill-opacity="0" stroke="rgb(0,0,0)" stroke-opacity="1" stroke-width="5" d=" M20.128999710083008,-10.29699993133545 C19.645999908447266,-4.810999870300293 1.2410000562667847,3.006999969482422 -6.453000068664551,-5.478000164031982"/></g><g opacity="1" transform="matrix(1,0,0,1,138.22500610351562,416.9010009765625)"><path stroke-linecap="round" stroke-linejoin="round" fill-opacity="0" stroke="rgb(0,0,0)" stroke-opacity="1" stroke-width="5" d=" M18.225000381469727,-3.0290000438690186 C16.124000549316406,1.9900000095367432 1.1610000133514404,3.0959999561309814 -1.2929999828338623,-7.548999786376953"/></g></g><g transform="matrix(-0.1740586906671524,0.5265517234802246,0.5265517234802246,0.1740586906671524,477.1645202636719,254.05987548828125)" opacity="1" style="display: none;"><g opacity="1" transform="matrix(1,0,0,1,0,0)"><path fill="rgb(228,35,32)" fill-opacity="1" d=" M19.424999237060547,0 C19.424999237060547,10.727999687194824 10.727999687194824,19.424999237060547 0,19.424999237060547 C-10.727999687194824,19.424999237060547 -19.424999237060547,10.727999687194824 -19.424999237060547,0 C-19.424999237060547,-10.727999687194824 -10.727999687194824,-19.424999237060547 0,-19.424999237060547 C10.727999687194824,-19.424999237060547 19.424999237060547,-10.727999687194824 19.424999237060547,0z"/><path stroke-linecap="round" stroke-linejoin="round" fill-opacity="0" stroke="rgb(0,0,0)" stroke-opacity="1" stroke-width="6" d=" M19.424999237060547,0 C19.424999237060547,10.727999687194824 10.727999687194824,19.424999237060547 0,19.424999237060547 C-10.727999687194824,19.424999237060547 -19.424999237060547,10.727999687194824 -19.424999237060547,0 C-19.424999237060547,-10.727999687194824 -10.727999687194824,-19.424999237060547 0,-19.424999237060547 C10.727999687194824,-19.424999237060547 19.424999237060547,-10.727999687194824 19.424999237060547,0z"/></g></g><g transform="matrix(-0.16645298898220062,0.4311267137527466,-0.4311267137527466,-0.16645298898220062,476.30743408203125,259.4796447753906)" opacity="1" style="display: none;"><g opacity="1" transform="matrix(1,0,0,1,0,0)"><path fill="rgb(228,35,32)" fill-opacity="1" d=" M-5.239999771118164,3.743000030517578 C-2.694999933242798,0 2.2820000648498535,-3.50600004196167 5.239999771118164,-3.743000030517578"/><path stroke-linecap="round" stroke-linejoin="round" fill-opacity="0" stroke="rgb(0,0,0)" stroke-opacity="1" stroke-width="5" d=" M-5.239999771118164,3.743000030517578 C-2.694999933242798,0 2.2820000648498535,-3.50600004196167 5.239999771118164,-3.743000030517578"/></g></g><g transform="matrix(-0.16645298898220062,0.4311267137527466,-0.4311267137527466,-0.16645298898220062,472.37054443359375,252.16851806640625)" opacity="1" style="display: none;"><g opacity="1" transform="matrix(1,0,0,1,0,0)"><path fill="rgb(228,35,32)" fill-opacity="1" d=" M-6.913000106811523,-1.2480000257492065 C-3.1419999599456787,1.4229999780654907 1.5709999799728394,2.680000066757202 6.913000106811523,-1.2480000257492065"/><path stroke-linecap="round" stroke-linejoin="round" fill-opacity="0" stroke="rgb(0,0,0)" stroke-opacity="1" stroke-width="5" d=" M-6.913000106811523,-1.2480000257492065 C-3.1419999599456787,1.4229999780654907 1.5709999799728394,2.680000066757202 6.913000106811523,-1.2480000257492065"/></g></g><g transform="matrix(-0.16645298898220062,0.4311267137527466,-0.4311267137527466,-0.16645298898220062,479.3106689453125,249.27337646484375)" opacity="1" style="display: none;"><g opacity="1" transform="matrix(1,0,0,1,0,0)"><path fill="rgb(0,0,0)" fill-opacity="1" d=" M3.9719998836517334,0 C3.9719998836517334,2.757999897003174 2.193000078201294,4.993000030517578 0,4.993000030517578 C-2.193000078201294,4.993000030517578 -3.9719998836517334,2.757999897003174 -3.9719998836517334,0 C-3.9719998836517334,-2.757999897003174 -2.193000078201294,-4.993000030517578 0,-4.993000030517578 C2.193000078201294,-4.993000030517578 3.9719998836517334,-2.757999897003174 3.9719998836517334,0z"/></g></g><g transform="matrix(-0.16645298898220062,0.4311267137527466,-0.4311267137527466,-0.16645298898220062,474.9450378417969,259.1924133300781)" opacity="1" style="display: none;"><g opacity="1" transform="matrix(1,0,0,1,0,0)"><path fill="rgb(0,0,0)" fill-opacity="1" d=" M3.9719998836517334,0 C3.9719998836517334,2.757999897003174 2.193000078201294,4.993000030517578 0,4.993000030517578 C-2.193000078201294,4.993000030517578 -3.9719998836517334,2.757999897003174 -3.9719998836517334,0 C-3.9719998836517334,-2.757999897003174 -2.193000078201294,-4.993000030517578 0,-4.993000030517578 C2.193000078201294,-4.993000030517578 3.9719998836517334,-2.757999897003174 3.9719998836517334,0z"/></g></g><g transform="matrix(-0.16645298898220062,0.4311267137527466,-0.4311267137527466,-0.16645298898220062,480.71441650390625,249.81533813476562)" opacity="1" style="display: none;"><g opacity="1" transform="matrix(1,0,0,1,0,0)"><path fill="rgb(228,35,32)" fill-opacity="1" d=" M-4.728000164031982,-3.940000057220459 C0.5260000228881836,-3.063999891281128 4.728000164031982,3.940000057220459 4.728000164031982,3.940000057220459"/><path stroke-linecap="round" stroke-linejoin="round" fill-opacity="0" stroke="rgb(0,0,0)" stroke-opacity="1" stroke-width="5" d=" M-4.728000164031982,-3.940000057220459 C0.5260000228881836,-3.063999891281128 4.728000164031982,3.940000057220459 4.728000164031982,3.940000057220459"/></g></g><g transform="matrix(-0.23406389355659485,-0.38757023215293884,-0.38757023215293884,0.23406389355659485,638.8745727539062,203.59654235839844)" opacity="1" style="display: none;"><g opacity="1" transform="matrix(1,0,0,1,109.82099914550781,395.2040100097656)"><path stroke-linecap="round" stroke-linejoin="round" fill-opacity="0" stroke="rgb(0,0,0)" stroke-opacity="1" stroke-width="6" d=" M-3.453000068664551,-6.059000015258789 C-6.631999969482422,-3.4579999446868896 -3.743000030517578,6.874000072479248 4.710999965667725,6.006999969482422"/></g><g opacity="1" transform="matrix(1,0,0,1,105.25700378417969,404.97601318359375)"><path stroke-linecap="round" stroke-linejoin="round" fill-opacity="0" stroke="rgb(0,0,0)" stroke-opacity="1" stroke-width="6" d=" M-9.354999542236328,-3.0929999351501465 C-9.14799976348877,2.184999942779541 3.696000099182129,7.2230000495910645 9.354999542236328,-2.125999927520752"/></g><g opacity="1" transform="matrix(1,0,0,1,106.87200164794922,415.07598876953125)"><path stroke-linecap="round" stroke-linejoin="round" fill-opacity="0" stroke="rgb(0,0,0)" stroke-opacity="1" stroke-width="6" d=" M-6.9679999351501465,2.2769999504089355 C-5.604000091552734,6.873000144958496 4.9679999351501465,5.8520002365112305 6.9679999351501465,-4.866000175476074"/></g></g><g transform="matrix(-0.23406389355659485,-0.38757023215293884,-0.38757023215293884,0.23406389355659485,638.8745727539062,203.59654235839844)" opacity="1" style="display: none;"><g opacity="1" transform="matrix(1,0,0,1,139.54600524902344,397.4169921875)"><path stroke-linecap="round" stroke-linejoin="round" fill-opacity="0" stroke="rgb(0,0,0)" stroke-opacity="1" stroke-width="6" d=" M5.110000133514404,-5.144999980926514 C7.570000171661377,-1.8550000190734863 2.2790000438690186,7.478000164031982 -5.7179999351501465,4.6020002365112305"/></g><g opacity="1" transform="matrix(1,0,0,1,142.55299377441406,407.39898681640625)"><path stroke-linecap="round" stroke-linejoin="round" fill-opacity="0" stroke="rgb(0,0,0)" stroke-opacity="1" stroke-width="6" d=" M9.196999549865723,-0.24500000476837158 C7.72599983215332,4.828000068664551 -5.953999996185303,6.627999782562256 -9.196999549865723,-3.808000087738037"/></g><g opacity="1" transform="matrix(1,0,0,1,138.22500610351562,416.9010009765625)"><path stroke-linecap="round" stroke-linejoin="round" fill-opacity="0" stroke="rgb(0,0,0)" stroke-opacity="1" stroke-width="6" d=" M5.919000148773193,4.304999828338623 C3.489000082015991,8.437999725341797 -6.526000022888184,4.9019999504089355 -5.888999938964844,-5.98199987411499"/></g></g><g transform="matrix(-0.23406389355659485,-0.38757023215293884,-0.38757023215293884,0.23406389355659485,452.5038757324219,250.2426300048828)" opacity="1" style="display: none;"><g opacity="1" transform="matrix(1,0,0,1,0,0)"><path fill="rgb(228,35,32)" fill-opacity="1" d=" M13.52299976348877,0 C13.52299976348877,7.468999862670898 7.468999862670898,13.52299976348877 0,13.52299976348877 C-7.468999862670898,13.52299976348877 -13.52299976348877,7.468999862670898 -13.52299976348877,0 C-13.52299976348877,-7.468999862670898 -7.468999862670898,-13.52299976348877 0,-13.52299976348877 C7.468999862670898,-13.52299976348877 13.52299976348877,-7.468999862670898 13.52299976348877,0z"/><path stroke-linecap="round" stroke-linejoin="round" fill-opacity="0" stroke="rgb(0,0,0)" stroke-opacity="1" stroke-width="6" d=" M13.52299976348877,0 C13.52299976348877,7.468999862670898 7.468999862670898,13.52299976348877 0,13.52299976348877 C-7.468999862670898,13.52299976348877 -13.52299976348877,7.468999862670898 -13.52299976348877,0 C-13.52299976348877,-7.468999862670898 -7.468999862670898,-13.52299976348877 0,-13.52299976348877 C7.468999862670898,-13.52299976348877 13.52299976348877,-7.468999862670898 13.52299976348877,0z"/></g></g></g></g></svg>